<svg width="211" height="210" viewBox="0 0 211 210" fill="none" xmlns="http://www.w3.org/2000/svg">
<circle cx="105.354" cy="105" r="104.5" stroke="white" stroke-opacity="0.2"/>
<circle cx="105.354" cy="105" r="64.5" stroke="white" stroke-opacity="0.2"/>
<path d="M94.6706 182.83L95.7048 193.335L94.4697 193.124L93.7651 184.592L93.6671 184.576L90.1373 192.386L88.765 192.152L88.0212 183.613L87.9232 183.597L84.4326 191.414L83.1975 191.204L87.6524 181.634L88.9071 181.848L89.7594 190.224L89.8378 190.237L93.416 182.616L94.6706 182.83Z" fill="white"/>
<path d="M80.3021 179.548L76.7079 189.074L70.9586 186.905L71.3447 185.882L75.9404 187.616L77.1549 184.397L72.8569 182.775L73.243 181.752L77.541 183.374L78.7624 180.136L74.0923 178.374L74.4784 177.351L80.3021 179.548Z" fill="white"/>
<path d="M60.297 169.594L54.1702 177.726L51.4224 175.656C50.7844 175.175 50.3497 174.667 50.1182 174.132C49.882 173.597 49.8126 173.061 49.9099 172.525C50.0072 171.988 50.2363 171.48 50.5973 171.001C50.9583 170.522 51.3843 170.16 51.8754 169.916C52.3638 169.67 52.8982 169.583 53.4788 169.655C54.0573 169.73 54.6629 170.005 55.2956 170.482L57.2651 171.966L56.6069 172.839L54.6692 171.379C54.2324 171.05 53.8248 170.862 53.4464 170.813C53.068 170.764 52.7225 170.824 52.41 170.991C52.0927 171.158 51.8115 171.405 51.5662 171.731C51.3208 172.056 51.1624 172.393 51.0907 172.742C51.0163 173.088 51.058 173.435 51.2157 173.782C51.3714 174.132 51.6702 174.473 52.1123 174.806L53.8436 176.111L59.3122 168.852L60.297 169.594Z" fill="white"/>
<path d="M49.7968 160.848L42.4892 167.938L40.0935 165.469C39.5396 164.898 39.1825 164.335 39.0221 163.779C38.8594 163.226 38.8615 162.698 39.0285 162.194C39.1955 161.69 39.4943 161.229 39.9248 160.812C40.3554 160.394 40.8226 160.111 41.3264 159.964C41.8302 159.817 42.3538 159.833 42.8972 160.013C43.4383 160.194 43.9834 160.568 44.5327 161.134L46.4714 163.132L45.6722 163.908L43.7612 161.938C43.3827 161.548 43.0209 161.29 42.6759 161.163C42.3287 161.033 41.9984 161.016 41.6852 161.112C41.3674 161.208 41.0621 161.398 40.7695 161.682C40.477 161.966 40.2743 162.269 40.1616 162.591C40.049 162.912 40.0497 163.251 40.1639 163.607C40.2757 163.965 40.5231 164.341 40.9062 164.736L42.4156 166.292L48.9382 159.963L49.7968 160.848ZM43.1768 160.593L44.7146 155.61L45.7117 156.638L44.1461 161.593L43.1768 160.593Z" fill="white"/>
<path d="M33.5676 148.814C34.4444 148.194 35.3141 147.817 36.1766 147.682C37.0392 147.547 37.8388 147.633 38.5756 147.94C39.3123 148.247 39.9314 148.755 40.4327 149.464C40.9341 150.173 41.2067 150.926 41.2507 151.723C41.2946 152.52 41.1092 153.303 40.6944 154.071C40.2796 154.839 39.6338 155.534 38.757 156.154C37.8802 156.774 37.0105 157.151 36.1479 157.286C35.2854 157.421 34.4857 157.335 33.749 157.028C33.0122 156.721 32.3932 156.212 31.8918 155.503C31.3905 154.794 31.1179 154.041 31.0739 153.244C31.0299 152.447 31.2154 151.665 31.6302 150.897C32.0449 150.128 32.6907 149.434 33.5676 148.814ZM34.2564 149.788C33.5366 150.297 33.0142 150.847 32.6892 151.438C32.3624 152.027 32.2162 152.615 32.2508 153.204C32.2834 153.79 32.4777 154.334 32.8336 154.837C33.1895 155.341 33.6391 155.707 34.1825 155.936C34.7239 156.162 35.3274 156.22 35.9929 156.111C36.6565 155.999 37.3483 155.688 38.0681 155.179C38.788 154.67 39.3113 154.122 39.6382 153.533C39.9631 152.942 40.1093 152.354 40.0766 151.768C40.0421 151.18 39.8469 150.634 39.491 150.13C39.135 149.627 38.6864 149.262 38.145 149.036C37.6016 148.807 36.9982 148.749 36.3345 148.861C35.669 148.97 34.9763 149.279 34.2564 149.788Z" fill="white"/>
<path d="M25.9815 145.432L32.3959 138.994L32.3442 138.886L23.3099 139.877L22.7497 138.712L33.5459 137.669L34.0975 138.816L26.5417 146.597L25.9815 145.432Z" fill="white"/>
<path d="M20.332 131.643L30.0223 128.518L30.4008 129.691L20.7105 132.817L20.332 131.643Z" fill="white"/>
<path d="M27.5181 118.216L28.0483 121.313L18.0124 123.031L17.4588 119.796C17.2922 118.823 17.3505 117.955 17.6337 117.194C17.9138 116.433 18.3962 115.804 19.0811 115.307C19.7628 114.81 20.6231 114.473 21.6619 114.295C22.7073 114.116 23.6392 114.149 24.4576 114.392C25.2728 114.636 25.9438 115.079 26.4708 115.722C26.9946 116.365 27.3437 117.196 27.5181 118.216ZM26.7622 120.282L26.4535 118.479C26.3115 117.649 26.0337 116.989 25.6201 116.498C25.2066 116.007 24.6812 115.678 24.0441 115.512C23.4069 115.345 22.68 115.332 21.8632 115.471C21.0531 115.61 20.3782 115.862 19.8388 116.227C19.296 116.592 18.9128 117.064 18.6893 117.644C18.4624 118.224 18.4161 118.906 18.5503 119.69L18.8825 121.631L26.7622 120.282Z" fill="white"/>
<path d="M26.3582 107.788L16.1764 107.748L16.2003 101.603L17.294 101.608L17.275 106.519L20.7153 106.533L20.7331 101.939L21.8268 101.943L21.809 106.537L25.2692 106.55L25.2886 101.559L26.3823 101.563L26.3582 107.788Z" fill="white"/>
<path d="M24.2784 75.7374L23.9346 76.9215C23.5737 76.8926 23.239 76.9283 22.9303 77.0285C22.6226 77.1255 22.3452 77.2728 22.098 77.4702C21.8486 77.6635 21.6359 77.8969 21.4599 78.1702C21.2839 78.4435 21.1488 78.7425 21.0545 79.0671C20.8826 79.6592 20.8765 80.2389 21.0362 80.8064C21.1967 81.3707 21.5271 81.8791 22.0274 82.3315C22.5285 82.7807 23.2024 83.1283 24.0491 83.3741C24.8957 83.6199 25.651 83.6873 26.3148 83.5764C26.9795 83.4622 27.5308 83.2098 27.9686 82.8193C28.4073 82.4255 28.7127 81.9326 28.8846 81.3406C28.9788 81.0159 29.0248 80.6911 29.0226 80.366C29.0203 80.0409 28.9673 79.7304 28.8634 79.4345C28.7572 79.1345 28.6002 78.8611 28.3922 78.6144C28.1821 78.3635 27.9185 78.1541 27.6014 77.9861L27.9452 76.8021C28.419 77.0363 28.8191 77.3285 29.1454 77.6786C29.4717 78.0287 29.7225 78.4191 29.8977 78.8496C30.0698 79.2792 30.1642 79.7328 30.1808 80.2105C30.1983 80.6849 30.1355 81.1688 29.9922 81.6622C29.7501 82.4961 29.3311 83.1786 28.7351 83.7096C28.1392 84.2407 27.4115 84.5833 26.5522 84.7376C25.6929 84.8919 24.7476 84.8194 23.7164 84.5199C22.6851 84.2205 21.8479 83.7755 21.2049 83.185C20.5618 82.5945 20.1309 81.9155 19.912 81.1479C19.6931 80.3802 19.7047 79.5795 19.9469 78.7455C20.0901 78.2522 20.2962 77.8099 20.5651 77.4186C20.8349 77.0241 21.1592 76.692 21.5377 76.4223C21.9131 76.1516 22.3323 75.9558 22.7954 75.8349C23.2553 75.713 23.7496 75.6805 24.2784 75.7374Z" fill="white"/>
<path d="M32.8294 73.5646L23.5797 69.3088L25.0177 66.1834C25.3502 65.4608 25.7465 64.9244 26.2068 64.5743C26.664 64.2229 27.1577 64.0341 27.6877 64.008C28.2178 63.9819 28.7554 64.0942 29.3003 64.345C29.8453 64.5957 30.2773 64.9295 30.5964 65.3462C30.9154 65.763 31.0894 66.2571 31.1183 66.8286C31.1442 67.3988 30.9923 68.0421 30.6626 68.7587L29.4989 71.288L28.4872 70.8225L29.6343 68.3294C29.8615 67.8356 29.9721 67.4049 29.9661 67.0373C29.9615 66.6667 29.8578 66.3527 29.6552 66.0953C29.451 65.8335 29.1637 65.6174 28.7933 65.447C28.423 65.2766 28.0674 65.1969 27.7267 65.208C27.3859 65.219 27.0703 65.342 26.7799 65.5768C26.4864 65.8103 26.2247 66.1769 25.9947 66.6767L25.0887 68.6459L33.3448 72.4445L32.8294 73.5646ZM30.6775 67.299L35.88 66.9344L35.2815 68.2352L30.0957 68.5636L30.6775 67.299Z" fill="white"/>
<path d="M37.6836 64.0577L29.2009 58.4263L32.5994 53.3068L33.5107 53.9118L30.794 58.0041L33.6603 59.9068L36.201 56.0796L37.1122 56.6846L34.5715 60.5118L37.4543 62.4255L40.215 58.267L41.1262 58.8719L37.6836 64.0577Z" fill="white"/>
<path d="M46.0367 52.7528L45.1525 53.6957L40.2827 44.0039L41.1533 43.0755L51.1378 47.313L50.2536 48.2559L41.9202 44.6125L41.8658 44.6705L46.0367 52.7528ZM43.4619 49.6841L47.0259 45.8834L47.8237 46.6316L44.2598 50.4322L43.4619 49.6841Z" fill="white"/>
<path d="M48.7834 37.4489L48.1052 36.5908L54.096 31.8554L54.7742 32.7135L52.2625 34.6989L57.8981 41.8286L56.9308 42.5932L51.2952 35.4634L48.7834 37.4489Z" fill="white"/>
<path d="M59.3557 28.638L64.6343 37.3446L63.5799 37.9838L58.3014 29.2772L59.3557 28.638Z" fill="white"/>
<path d="M67.5459 24.2626L73.7263 30.926L73.8358 30.8786L73.2028 21.8123L74.3889 21.2985L75.0053 32.1275L73.8374 32.6333L66.3598 24.7764L67.5459 24.2626Z" fill="white"/>
<path d="M83.0206 29.2577L80.5851 19.3714L86.5516 17.9016L86.8132 18.9636L82.0439 20.1385L82.8668 23.479L87.3272 22.3801L87.5888 23.4421L83.1284 24.541L83.9561 27.9007L88.8027 26.7068L89.0643 27.7688L83.0206 29.2577Z" fill="white"/>
<path d="M106.958 26.1639L104.809 15.8293L106.06 15.9069L107.67 24.3153L107.77 24.3214L110.446 16.1789L111.836 16.265L113.486 24.6759L113.585 24.6821L116.222 16.5371L117.473 16.6146L114.064 26.6046L112.793 26.5258L111.053 18.2886L110.973 18.2837L108.228 26.2427L106.958 26.1639Z" fill="white"/>
<path d="M121.593 27.8945L124.15 18.0392L130.098 19.5828L129.823 20.6415L125.069 19.4076L124.205 22.7376L128.651 23.8916L128.376 24.9503L123.93 23.7963L123.061 27.1455L127.892 28.3994L127.617 29.4581L121.593 27.8945Z" fill="white"/>
<path d="M134.619 31.9112L138.838 22.645L142.078 24.1203C142.723 24.4143 143.205 24.7683 143.523 25.1825C143.842 25.5936 144.019 26.0329 144.053 26.5003C144.089 26.9647 144.005 27.4232 143.798 27.8756C143.617 28.2738 143.397 28.5703 143.137 28.7651C142.88 28.9613 142.602 29.0827 142.304 29.1291C142.01 29.1769 141.713 29.1765 141.414 29.128L141.373 29.2185C141.649 29.3657 141.888 29.5951 142.092 29.9066C142.297 30.218 142.418 30.5867 142.457 31.0124C142.497 31.4381 142.405 31.8953 142.182 32.384C141.971 32.8485 141.675 33.2182 141.295 33.493C140.915 33.7679 140.448 33.9102 139.893 33.9199C139.339 33.9297 138.697 33.7684 137.967 33.4359L134.619 31.9112ZM136.194 31.4268L138.42 32.4405C139.153 32.7743 139.738 32.8695 140.175 32.7261C140.616 32.581 140.929 32.3049 141.115 31.8977C141.257 31.584 141.309 31.258 141.27 30.9198C141.233 30.5785 141.103 30.2607 140.88 29.9662C140.658 29.6687 140.346 29.4279 139.941 29.2438L137.661 28.2053L136.194 31.4268ZM138.106 27.228L140.187 28.1759C140.525 28.3297 140.86 28.4021 141.192 28.393C141.527 28.3853 141.829 28.2972 142.099 28.1287C142.372 27.9616 142.582 27.7151 142.731 27.3893C142.916 26.9821 142.932 26.5722 142.777 26.1596C142.624 25.7439 142.24 25.3959 141.625 25.1157L139.507 24.1514L138.106 27.228Z" fill="white"/>
<path d="M156.295 45.2273L153.917 43.1739L160.571 35.4672L163.054 37.6116C163.802 38.2571 164.308 38.9637 164.574 39.7315C164.841 40.4968 164.869 41.289 164.656 42.1083C164.446 42.925 163.996 43.7323 163.308 44.53C162.614 45.3328 161.875 45.9005 161.088 46.2331C160.304 46.5631 159.504 46.6476 158.689 46.4865C157.876 46.3228 157.078 45.9031 156.295 45.2273ZM155.565 43.1518L156.949 44.3475C157.587 44.8976 158.221 45.2307 158.852 45.3465C159.483 45.4624 160.098 45.3821 160.696 45.1057C161.293 44.8292 161.863 44.3774 162.404 43.7502C162.942 43.1281 163.303 42.5048 163.487 41.8803C163.674 41.2533 163.669 40.645 163.473 40.0554C163.279 39.4633 162.881 38.9074 162.279 38.3875L160.789 37.1009L155.565 43.1518Z" fill="white"/>
<path d="M163.82 52.5383L171.705 46.0954L175.593 50.8536L174.746 51.5457L171.638 47.7422L168.974 49.9192L171.881 53.4763L171.034 54.1684L168.127 50.6113L165.448 52.8009L168.606 56.666L167.759 57.3581L163.82 52.5383Z" fill="white"/>
<path d="M181.342 64.5499C181.75 64.2486 181.97 63.8448 182.002 63.3384C182.034 62.8319 181.897 62.3109 181.592 61.7753C181.369 61.3836 181.11 61.077 180.816 60.8555C180.524 60.6369 180.22 60.5086 179.905 60.4708C179.591 60.4359 179.293 60.4989 179.011 60.6597C178.775 60.7942 178.604 60.9661 178.498 61.1752C178.396 61.3856 178.34 61.612 178.33 61.8545C178.322 62.0954 178.338 62.3343 178.378 62.5711C178.42 62.8063 178.467 63.0183 178.517 63.2071L178.787 64.2434C178.858 64.5082 178.92 64.8121 178.975 65.155C179.03 65.5008 179.04 65.8558 179.003 66.22C178.971 66.5854 178.861 66.9343 178.673 67.2667C178.485 67.599 178.183 67.8834 177.768 68.1196C177.29 68.392 176.787 68.5129 176.258 68.4822C175.731 68.4545 175.218 68.2664 174.718 67.918C174.22 67.5725 173.777 67.0599 173.39 66.3803C173.029 65.7467 172.819 65.1399 172.759 64.5598C172.701 63.9825 172.779 63.4572 172.994 62.9839C173.21 62.5135 173.55 62.1231 174.015 61.8129L174.645 62.9187C174.327 63.1378 174.115 63.4077 174.007 63.7282C173.905 64.05 173.886 64.3924 173.952 64.7555C174.022 65.1198 174.157 65.4776 174.357 65.8289C174.59 66.2379 174.866 66.5673 175.184 66.8172C175.505 67.0655 175.839 67.2166 176.186 67.2704C176.536 67.3227 176.872 67.2569 177.195 67.0731C177.489 66.9057 177.681 66.6875 177.772 66.4183C177.863 66.1491 177.889 65.8478 177.852 65.5144C177.814 65.1809 177.75 64.8341 177.659 64.4739L177.35 63.2081C177.155 62.4038 177.127 61.695 177.266 61.0818C177.405 60.4686 177.772 59.9922 178.368 59.6525C178.864 59.3703 179.372 59.2581 179.893 59.3158C180.419 59.3749 180.914 59.5736 181.377 59.9121C181.845 60.2518 182.24 60.7039 182.562 61.2683C182.887 61.8385 183.073 62.4036 183.122 62.9636C183.173 63.5219 183.097 64.0308 182.893 64.4901C182.691 64.9524 182.371 65.3178 181.933 65.5866L181.342 64.5499Z" fill="white"/>
<path d="M187.598 72.1774L178.149 75.9699L177.689 74.8257L187.138 71.0332L187.598 72.1774Z" fill="white"/>
<path d="M189.07 88.1229C189.37 87.9373 189.627 87.7262 189.842 87.4895C190.061 87.2552 190.234 86.9965 190.359 86.7135C190.485 86.4337 190.56 86.1322 190.584 85.8092C190.607 85.4862 190.576 85.146 190.488 84.7886C190.345 84.2025 190.064 83.7065 189.644 83.3006C189.225 82.8946 188.686 82.6218 188.027 82.4822C187.369 82.3425 186.611 82.3771 185.755 82.586C184.898 82.795 184.21 83.1146 183.691 83.5448C183.172 83.9751 182.82 84.4719 182.637 85.0352C182.454 85.5985 182.437 86.186 182.586 86.7978C182.724 87.3645 182.967 87.8342 183.313 88.2067C183.664 88.5818 184.091 88.8358 184.594 88.9689C185.102 89.1045 185.658 89.0985 186.263 88.9508L186.276 89.3367L185.55 86.3615L186.613 86.1023L187.531 89.8697L186.469 90.1289C185.654 90.3276 184.903 90.3265 184.216 90.1256C183.53 89.9279 182.947 89.5652 182.467 89.0375C181.991 88.5122 181.657 87.8568 181.465 87.0711C181.252 86.1952 181.27 85.3754 181.521 84.6116C181.772 83.8509 182.232 83.1928 182.902 82.6372C183.572 82.0847 184.429 81.6813 185.472 81.4268C186.255 81.236 186.984 81.1691 187.66 81.226C188.339 81.2854 188.947 81.4545 189.482 81.7333C190.018 82.0121 190.467 82.3869 190.831 82.8576C191.195 83.3284 191.454 83.8809 191.609 84.5153C191.736 85.0369 191.776 85.5424 191.728 86.0316C191.684 86.5234 191.562 86.9813 191.362 87.4054C191.166 87.8319 190.899 88.2126 190.561 88.5475C190.226 88.8816 189.83 89.1522 189.372 89.3594L189.07 88.1229Z" fill="white"/>
<path d="M193.939 103.781L183.779 104.451L183.701 103.26L191.313 97.1979L191.306 97.0987L183.329 97.6244L183.248 96.3941L193.408 95.7245L193.486 96.9151L185.856 102.998L185.862 103.098L193.859 102.57L193.939 103.781Z" fill="white"/>
<path d="M188.732 125.79C189.237 125.838 189.67 125.685 190.032 125.329C190.394 124.973 190.64 124.494 190.77 123.891C190.865 123.451 190.877 123.05 190.806 122.688C190.734 122.33 190.594 122.032 190.384 121.794C190.174 121.558 189.91 121.406 189.593 121.338C189.327 121.28 189.085 121.294 188.866 121.379C188.65 121.468 188.458 121.599 188.288 121.773C188.121 121.947 187.974 122.136 187.845 122.338C187.72 122.542 187.613 122.731 187.524 122.905L187.034 123.857C186.91 124.101 186.753 124.369 186.565 124.661C186.376 124.956 186.146 125.226 185.876 125.473C185.608 125.724 185.293 125.91 184.931 126.032C184.569 126.154 184.155 126.164 183.688 126.063C183.15 125.947 182.695 125.701 182.322 125.325C181.948 124.953 181.691 124.47 181.551 123.877C181.411 123.287 181.423 122.61 181.589 121.845C181.743 121.133 181.991 120.54 182.334 120.069C182.676 119.6 183.085 119.261 183.561 119.052C184.036 118.846 184.55 118.783 185.102 118.861L184.833 120.105C184.451 120.057 184.112 120.116 183.819 120.283C183.527 120.454 183.285 120.696 183.092 121.011C182.901 121.329 182.763 121.686 182.677 122.081C182.578 122.541 182.563 122.97 182.633 123.368C182.706 123.767 182.854 124.103 183.076 124.375C183.302 124.647 183.597 124.823 183.96 124.901C184.29 124.973 184.579 124.938 184.826 124.799C185.073 124.659 185.294 124.452 185.489 124.179C185.684 123.906 185.868 123.605 186.04 123.276L186.655 122.127C187.047 121.398 187.499 120.851 188.011 120.487C188.524 120.123 189.116 120.014 189.786 120.159C190.344 120.279 190.797 120.535 191.146 120.926C191.499 121.321 191.734 121.799 191.854 122.36C191.975 122.926 191.968 123.526 191.831 124.161C191.692 124.803 191.454 125.348 191.116 125.797C190.781 126.247 190.385 126.575 189.927 126.781C189.468 126.99 188.985 127.049 188.48 126.957L188.732 125.79Z" fill="white"/>
<path d="M180.773 140.832C179.776 140.434 178.986 139.91 178.404 139.259C177.821 138.609 177.458 137.891 177.315 137.106C177.172 136.321 177.262 135.525 177.584 134.718C177.906 133.912 178.39 133.273 179.035 132.803C179.679 132.333 180.437 132.062 181.307 131.992C182.177 131.923 183.111 132.087 184.108 132.485C185.106 132.884 185.895 133.408 186.478 134.058C187.06 134.709 187.423 135.427 187.566 136.212C187.709 136.997 187.62 137.793 187.298 138.599C186.975 139.406 186.492 140.044 185.847 140.515C185.202 140.985 184.445 141.255 183.575 141.325C182.704 141.395 181.771 141.231 180.773 140.832ZM181.216 139.724C182.035 140.051 182.78 140.191 183.453 140.142C184.125 140.096 184.698 139.898 185.173 139.549C185.647 139.203 185.998 138.744 186.227 138.171C186.455 137.599 186.518 137.022 186.414 136.442C186.309 135.865 186.03 135.327 185.576 134.828C185.121 134.332 184.484 133.92 183.666 133.593C182.847 133.266 182.102 133.126 181.43 133.171C180.758 133.22 180.184 133.418 179.711 133.764C179.236 134.113 178.884 134.574 178.655 135.146C178.426 135.719 178.364 136.294 178.469 136.871C178.573 137.451 178.852 137.989 179.307 138.485C179.761 138.984 180.397 139.397 181.216 139.724Z" fill="white"/>
<path d="M173.523 143.406L182.346 148.487L181.73 149.556L173.855 145.02L171.493 149.121L170.545 148.575L173.523 143.406Z" fill="white"/>
<path d="M172.783 162.316L172.023 163.286L166.718 159.126C166.17 158.697 165.782 158.184 165.554 157.589C165.327 156.998 165.272 156.372 165.391 155.71C165.512 155.051 165.819 154.407 166.311 153.779C166.804 153.15 167.356 152.699 167.968 152.424C168.582 152.152 169.204 152.054 169.834 152.131C170.465 152.213 171.054 152.469 171.602 152.898L176.906 157.058L176.146 158.028L170.919 153.93C170.528 153.623 170.112 153.436 169.672 153.369C169.234 153.304 168.803 153.362 168.379 153.543C167.956 153.729 167.569 154.045 167.219 154.491C166.869 154.937 166.655 155.387 166.575 155.843C166.499 156.301 166.545 156.733 166.715 157.14C166.885 157.552 167.165 157.911 167.557 158.217L172.783 162.316Z" fill="white"/>
<path d="M166.555 167.366L167.301 168.166L161.718 173.376L160.972 172.577L163.313 170.392L157.111 163.748L158.013 162.907L164.214 169.551L166.555 167.366Z" fill="white"/>
<path d="M156.739 177.014L150.765 168.77L151.763 168.046L157.738 176.291L156.739 177.014Z" fill="white"/>
<path d="M139.297 181.387C138.797 180.437 138.536 179.525 138.515 178.653C138.494 177.78 138.683 176.998 139.084 176.308C139.485 175.617 140.069 175.07 140.837 174.665C141.606 174.261 142.388 174.089 143.184 174.149C143.98 174.21 144.732 174.495 145.439 175.007C146.147 175.518 146.751 176.249 147.251 177.199C147.751 178.15 148.012 179.061 148.033 179.934C148.055 180.807 147.865 181.588 147.464 182.279C147.064 182.969 146.479 183.516 145.711 183.921C144.942 184.326 144.16 184.498 143.364 184.437C142.568 184.377 141.817 184.091 141.109 183.58C140.402 183.068 139.798 182.337 139.297 181.387ZM140.353 180.831C140.764 181.611 141.241 182.201 141.785 182.6C142.325 183.001 142.89 183.223 143.478 183.265C144.063 183.309 144.628 183.188 145.173 182.9C145.719 182.613 146.141 182.215 146.438 181.706C146.733 181.199 146.87 180.608 146.848 179.934C146.823 179.262 146.606 178.535 146.195 177.755C145.784 176.975 145.309 176.385 144.768 175.984C144.224 175.585 143.66 175.363 143.075 175.319C142.487 175.276 141.92 175.399 141.375 175.686C140.829 175.973 140.409 176.37 140.114 176.878C139.817 177.387 139.68 177.977 139.705 178.65C139.726 179.324 139.942 180.051 140.353 180.831Z" fill="white"/>
<path d="M127.623 190.844L124.505 181.152L125.641 180.786L133.371 186.697L133.466 186.667L131.018 179.057L132.191 178.679L135.309 188.372L134.174 188.737L126.419 182.813L126.324 182.844L128.778 190.473L127.623 190.844Z" fill="white"/>
<path d="M114.61 190.603C114.741 191.093 115.037 191.445 115.497 191.66C115.956 191.874 116.491 191.937 117.101 191.849C117.548 191.784 117.927 191.655 118.241 191.463C118.551 191.27 118.782 191.034 118.932 190.754C119.079 190.475 119.129 190.175 119.083 189.854C119.044 189.585 118.946 189.363 118.79 189.188C118.632 189.016 118.441 188.882 118.219 188.783C117.998 188.688 117.77 188.616 117.535 188.566C117.3 188.52 117.086 188.485 116.892 188.463L115.829 188.336C115.556 188.305 115.25 188.252 114.911 188.178C114.569 188.103 114.235 187.983 113.909 187.816C113.581 187.652 113.296 187.422 113.056 187.126C112.815 186.829 112.661 186.444 112.592 185.972C112.513 185.428 112.584 184.915 112.806 184.434C113.024 183.954 113.387 183.544 113.894 183.206C114.398 182.869 115.037 182.644 115.811 182.531C116.532 182.427 117.174 182.453 117.736 182.609C118.294 182.766 118.755 183.03 119.117 183.403C119.476 183.777 119.715 184.236 119.834 184.781L118.575 184.964C118.487 184.588 118.313 184.292 118.054 184.075C117.792 183.862 117.48 183.719 117.118 183.648C116.753 183.58 116.371 183.575 115.97 183.634C115.505 183.701 115.097 183.837 114.749 184.042C114.4 184.25 114.138 184.505 113.961 184.809C113.784 185.116 113.723 185.453 113.776 185.821C113.824 186.155 113.957 186.414 114.175 186.597C114.392 186.779 114.663 186.914 114.987 187.001C115.311 187.088 115.657 187.155 116.026 187.202L117.317 187.377C118.137 187.489 118.807 187.722 119.327 188.075C119.847 188.428 120.157 188.944 120.255 189.623C120.337 190.187 120.256 190.702 120.012 191.166C119.765 191.633 119.399 192.021 118.914 192.329C118.427 192.641 117.862 192.844 117.219 192.937C116.57 193.031 115.975 192.998 115.437 192.839C114.898 192.682 114.452 192.426 114.099 192.068C113.743 191.711 113.519 191.28 113.429 190.774L114.61 190.603Z" fill="white"/>
<path d="M104.661 85.0186C104.758 84.7822 104.923 84.5799 105.136 84.4376C105.348 84.2952 105.598 84.2192 105.853 84.2192C106.109 84.2192 106.358 84.2952 106.571 84.4376C106.783 84.5799 106.948 84.7822 107.045 85.0186L111.915 96.7313C112.006 96.9505 112.156 97.1403 112.348 97.2798C112.54 97.4193 112.766 97.5031 113.003 97.522L125.649 98.5349C126.792 98.6265 127.255 100.054 126.384 100.799L116.75 109.054C116.57 109.208 116.436 109.408 116.362 109.633C116.289 109.858 116.279 110.1 116.333 110.33L119.278 122.671C119.337 122.918 119.321 123.178 119.233 123.417C119.145 123.655 118.988 123.863 118.782 124.012C118.576 124.162 118.33 124.247 118.076 124.257C117.821 124.267 117.57 124.202 117.353 124.069L106.525 117.457C106.322 117.334 106.09 117.269 105.853 117.269C105.616 117.269 105.384 117.334 105.182 117.457L94.3535 124.071C94.1364 124.204 93.8848 124.269 93.6304 124.259C93.376 124.249 93.1304 124.164 92.9244 124.015C92.7184 123.865 92.5614 123.658 92.4731 123.419C92.3849 123.18 92.3693 122.921 92.4285 122.673L95.3733 110.33C95.4279 110.1 95.4179 109.858 95.3443 109.633C95.2707 109.408 95.1364 109.207 94.9562 109.054L85.3221 100.799C85.1291 100.633 84.9896 100.414 84.9209 100.169C84.8522 99.9239 84.8576 99.6641 84.9362 99.4221C85.0148 99.1801 85.1632 98.9668 85.3628 98.8089C85.5623 98.651 85.8041 98.5557 86.0577 98.5349L98.7031 97.522C98.9397 97.5031 99.1665 97.4193 99.3586 97.2798C99.5506 97.1403 99.7005 96.9505 99.7917 96.7313L104.661 85.0186Z" fill="#55E6A5"/>
</svg>
