<svg width="165" height="165" viewBox="0 0 165 165" fill="none" xmlns="http://www.w3.org/2000/svg">
<circle cx="82.5" cy="82.5" r="82.1071" fill="white" stroke="#55E6A5" stroke-width="0.785714"/>
<circle cx="82.5" cy="82.4999" r="50.6786" stroke="#55E6A5" stroke-width="0.785714"/>
<path d="M74.0053 143.635L74.9564 151.912L72.8501 151.553L72.5408 146.183L72.4753 146.172L70.2354 151.108L68.518 150.815L68.0412 145.404L67.9758 145.393L65.8995 150.369L63.797 150.011L67.432 142.515L69.2688 142.828L69.8748 147.853L69.9364 147.863L72.1723 143.323L74.0053 143.635Z" fill="#02050A"/>
<path d="M63.1561 141.202L60.3321 148.687L55.1131 146.718L55.6674 145.249L59.0773 146.535L59.6565 145L56.5134 143.814L57.0691 142.341L60.2122 143.527L60.7927 141.989L57.3828 140.702L57.9371 139.233L63.1561 141.202Z" fill="#02050A"/>
<path d="M47.3877 133.471L42.5738 139.861L39.9344 137.872C39.456 137.512 39.1136 137.107 38.9073 136.658C38.6974 136.21 38.6231 135.748 38.6845 135.273C38.7444 134.799 38.9397 134.343 39.2703 133.904C39.6025 133.463 39.9899 133.15 40.4325 132.965C40.8715 132.781 41.3369 132.732 41.8289 132.819C42.3209 132.906 42.8113 133.134 43.3001 133.502L44.9287 134.729L44.012 135.946L42.6704 134.935C42.4375 134.76 42.2125 134.654 41.9953 134.617C41.7762 134.579 41.5712 134.602 41.3804 134.687C41.188 134.774 41.0181 134.915 40.8708 135.11C40.722 135.308 40.634 135.509 40.607 135.713C40.5785 135.92 40.6134 136.123 40.712 136.321C40.8105 136.519 40.9752 136.705 41.2061 136.879L41.9673 137.452L45.8433 132.308L47.3877 133.471Z" fill="#02050A"/>
<path d="M39.1019 126.642L33.3602 132.212L31.059 129.84C30.642 129.411 30.3596 128.964 30.2118 128.502C30.0605 128.039 30.0462 127.583 30.169 127.134C30.2899 126.686 30.5466 126.272 30.9391 125.891C31.3372 125.505 31.7599 125.264 32.207 125.167C32.6523 125.073 33.1028 125.114 33.5587 125.293C34.0127 125.473 34.4519 125.781 34.8762 126.219L36.3315 127.718L35.2381 128.779L34.0331 127.537C33.83 127.328 33.6333 127.18 33.4431 127.092C33.2492 127.004 33.0608 126.978 32.878 127.014C32.6933 127.052 32.5121 127.157 32.3345 127.329C32.157 127.502 32.0456 127.68 32.0005 127.866C31.9534 128.053 31.9699 128.246 32.0498 128.444C32.1278 128.644 32.2674 128.848 32.4687 129.055L33.1324 129.739L37.7554 125.254L39.1019 126.642ZM33.3415 125.955L34.5784 121.979L36.0472 123.493L34.7832 127.441L33.3415 125.955Z" fill="#02050A"/>
<path d="M25.8444 116.568C26.5631 116.06 27.27 115.767 27.9652 115.69C28.6603 115.614 29.3045 115.719 29.8976 116.008C30.4893 116.295 30.9919 116.73 31.4053 117.315C31.8203 117.902 32.0631 118.523 32.1339 119.177C32.2046 119.832 32.0889 120.474 31.7868 121.102C31.4811 121.73 30.9699 122.297 30.2533 122.804C29.5346 123.312 28.8285 123.605 28.1348 123.684C27.4397 123.761 26.7963 123.656 26.2046 123.37C25.6129 123.083 25.1096 122.647 24.6947 122.06C24.2812 121.475 24.038 120.856 23.9652 120.203C23.8908 119.547 24.0058 118.905 24.31 118.275C24.6142 117.645 25.1257 117.076 25.8444 116.568ZM26.9855 118.182C26.5603 118.483 26.2438 118.797 26.036 119.126C25.8268 119.453 25.7264 119.782 25.7348 120.114C25.7417 120.444 25.8564 120.766 26.0789 121.081C26.2999 121.394 26.5656 121.609 26.8759 121.728C27.1862 121.847 27.531 121.863 27.9101 121.776C28.2877 121.688 28.6892 121.494 29.1145 121.193C29.5397 120.892 29.857 120.579 30.0662 120.252C30.2739 119.923 30.3736 119.593 30.3652 119.261C30.3568 118.929 30.2421 118.606 30.0211 118.294C29.7986 117.979 29.5329 117.763 29.2241 117.647C28.9137 117.528 28.5698 117.513 28.1921 117.601C27.813 117.688 27.4108 117.881 26.9855 118.182Z" fill="#02050A"/>
<path d="M19.6479 113.255L24.1531 109.103L24.1243 109.043L18.0684 109.97L17.1306 108.02L25.5101 106.985L26.6257 109.305L20.5857 115.205L19.6479 113.255Z" fill="#02050A"/>
<path d="M15.5134 102.861L23.1272 100.406L23.7207 102.246L16.1069 104.701L15.5134 102.861Z" fill="#02050A"/>
<path d="M21.3228 92.7605L21.8217 95.6752L13.9364 97.025L13.4382 94.1142C13.3006 93.3108 13.3401 92.592 13.5565 91.9578C13.7699 91.3216 14.1448 90.795 14.6811 90.3782C15.2149 89.9619 15.8912 89.6837 16.71 89.5435C17.5314 89.4029 18.2643 89.4399 18.9087 89.6546C19.5527 89.8667 20.0824 90.237 20.4978 90.7657C20.9107 91.2947 21.1857 91.9597 21.3228 92.7605ZM19.8707 94.0474L19.7105 93.1118C19.635 92.6703 19.4966 92.3096 19.2954 92.0296C19.0913 91.7475 18.8064 91.5572 18.4407 91.4586C18.0721 91.3579 17.6042 91.3561 17.0369 91.4532C16.4696 91.5503 16.0315 91.7072 15.7225 91.9239C15.4109 92.1411 15.2072 92.4177 15.1115 92.7537C15.0128 93.0877 15.0021 93.4805 15.0795 93.9323L15.235 94.841L19.8707 94.0474Z" fill="#02050A"/>
<path d="M20.4307 85.0534L12.4308 85.0224L12.4524 79.4443L14.0227 79.4504L14.0086 83.0949L15.6492 83.1013L15.6622 79.7419L17.2364 79.748L17.2234 83.1074L18.8679 83.1137L18.8821 79.4692L20.4524 79.4753L20.4307 85.0534Z" fill="#02050A"/>
<path d="M19.31 59.1764L18.7654 61.0521C18.5656 61.0212 18.3769 61.022 18.1993 61.0545C18.0217 61.087 17.8594 61.1511 17.7123 61.2466C17.5653 61.3422 17.4376 61.4692 17.3292 61.6276C17.2191 61.7827 17.1335 61.9653 17.0725 62.1754C16.9643 62.548 16.9623 62.8959 17.0665 63.219C17.1713 63.5396 17.3753 63.8225 17.6783 64.0678C17.982 64.3105 18.379 64.5031 18.8691 64.6454C19.3793 64.7935 19.828 64.8452 20.2153 64.8003C20.6007 64.7523 20.9195 64.6211 21.1715 64.4068C21.4217 64.1893 21.5999 63.898 21.7059 63.5329C21.7654 63.3278 21.7933 63.1339 21.7894 62.9511C21.7863 62.7658 21.7532 62.5948 21.6902 62.4382C21.6254 62.2784 21.5325 62.1362 21.4114 62.0115C21.2885 61.8837 21.1393 61.7766 20.9637 61.6904L21.5195 59.818C21.8502 59.9492 22.1566 60.1453 22.4388 60.4062C22.7217 60.6646 22.9581 60.9759 23.1479 61.3402C23.3352 61.7037 23.4494 62.1138 23.4904 62.5704C23.5321 63.0245 23.4763 63.5154 23.3231 64.0431C23.1212 64.7384 22.7879 65.3168 22.323 65.7784C21.8564 66.2368 21.2831 66.5394 20.6032 66.6864C19.9232 66.8334 19.1619 66.7845 18.3191 66.5398C17.4738 66.2944 16.8041 65.925 16.3101 65.4318C15.816 64.9385 15.4963 64.3725 15.351 63.7337C15.2056 63.095 15.2321 62.4342 15.4303 61.7515C15.5654 61.2863 15.7553 60.875 16 60.5176C16.2423 60.1595 16.5308 59.8664 16.8655 59.6381C17.1978 59.4092 17.5699 59.2529 17.982 59.1691C18.3941 59.0854 18.8367 59.0878 19.31 59.1764Z" fill="#02050A"/>
<path d="M25.3652 58.1305L18.0976 54.7867L19.4789 51.7845C19.7292 51.2404 20.0435 50.8159 20.4216 50.5112C20.7985 50.203 21.2186 50.0251 21.682 49.9774C22.143 49.9287 22.6219 50.0186 23.1187 50.2472C23.6226 50.479 24.0002 50.786 24.2515 51.1682C24.5004 51.5494 24.624 51.9846 24.6224 52.4741C24.6185 52.9624 24.4891 53.4834 24.2344 54.037L23.3609 55.9355L21.9769 55.2988L22.7002 53.7267C22.8221 53.4618 22.8896 53.2248 22.9026 53.0158C22.9144 52.8033 22.8705 52.6183 22.771 52.4607C22.6692 52.3021 22.5059 52.171 22.2811 52.0676C22.0564 51.9642 21.8494 51.9249 21.6603 51.9497C21.4688 51.9734 21.295 52.0582 21.139 52.2043C20.9805 52.3493 20.8409 52.5531 20.7201 52.8157L20.3217 53.6815L26.1734 56.3739L25.3652 58.1305ZM23.9262 52.5106L28.0805 52.2291L27.1988 54.1453L23.0609 54.3914L23.9262 52.5106Z" fill="#02050A"/>
<path d="M29.1305 50.6339L22.4655 46.2092L25.5506 41.5619L26.8589 42.4304L24.8432 45.4668L26.21 46.3742L28.068 43.5754L29.3796 44.4461L27.5216 47.2449L28.8917 48.1544L30.9074 45.118L32.2157 45.9866L29.1305 50.6339Z" fill="#02050A"/>
<path d="M36.6046 40.6905L35.1831 42.2064L31.1938 34.7652L32.9546 32.8874L40.6366 36.3907L39.2151 37.9066L33.5646 35.1837L33.5218 35.2293L36.6046 40.6905ZM34.1182 38.7392L37.0895 35.5706L38.1609 36.5753L35.1896 39.7438L34.1182 38.7392Z" fill="#02050A"/>
<path d="M38.3453 30.0981L37.3715 28.8662L42.6762 24.6732L43.65 25.9051L41.7469 27.4094L45.734 32.4536L44.2385 33.6357L40.2514 28.5915L38.3453 30.0981Z" fill="#02050A"/>
<path d="M46.8739 22.1892L51.0213 29.0302L49.3679 30.0326L45.2204 23.1916L46.8739 22.1892Z" fill="#02050A"/>
<path d="M53.8254 18.6164L57.796 23.2819L57.857 23.2555L57.1697 17.1678L59.1555 16.3076L59.8584 24.7214L57.4963 25.7446L51.8396 19.4765L53.8254 18.6164Z" fill="#02050A"/>
<path d="M64.6002 23.0752L62.6866 15.3074L68.1028 13.9731L68.4784 15.4978L64.9397 16.3696L65.3321 17.9626L68.594 17.159L68.9705 18.6876L65.7087 19.4911L66.102 21.0879L69.6408 20.2161L70.0164 21.7409L64.6002 23.0752Z" fill="#02050A"/>
<path d="M83.8611 20.5636L82.0326 12.4348L84.1653 12.5671L85.0455 17.8739L85.1118 17.878L86.8125 12.7312L88.5514 12.839L89.6024 18.1682L89.6687 18.1723L91.2025 13.0035L93.3312 13.1355L90.5163 20.9763L88.6566 20.8609L87.5183 15.9295L87.4559 15.9256L85.717 20.6786L83.8611 20.5636Z" fill="#02050A"/>
<path d="M94.9075 21.8257L96.9171 14.0823L102.316 15.4835L101.922 17.0035L98.3943 16.088L97.9821 17.676L101.234 18.5199L100.838 20.0436L97.5867 19.1997L97.1736 20.7915L100.701 21.707L100.307 23.227L94.9075 21.8257Z" fill="#02050A"/>
<path d="M105.162 24.9224L108.478 17.6418L111.514 19.0244C112.059 19.2726 112.48 19.5574 112.777 19.8788C113.077 20.2012 113.256 20.5431 113.315 20.9046C113.376 21.2671 113.323 21.6309 113.157 21.9959C113.03 22.2732 112.86 22.4944 112.644 22.6595C112.43 22.8223 112.188 22.9284 111.92 22.9778C111.651 23.0272 111.37 23.0193 111.076 22.9542L111.044 23.0253C111.331 23.1734 111.567 23.3764 111.75 23.6343C111.935 23.8932 112.045 24.1864 112.079 24.5138C112.114 24.8389 112.052 25.1767 111.892 25.5275C111.714 25.9185 111.455 26.2228 111.116 26.4402C110.777 26.6553 110.379 26.7659 109.921 26.772C109.465 26.7758 108.967 26.6552 108.429 26.4102L105.162 24.9224ZM107.568 24.3053L108.656 24.8007C109.038 24.9745 109.351 25.0301 109.597 24.9676C109.846 24.9061 110.029 24.7462 110.146 24.4879C110.231 24.3006 110.261 24.1195 110.235 23.9445C110.21 23.7671 110.133 23.605 110.006 23.4581C109.879 23.3089 109.703 23.183 109.478 23.0805L108.358 22.5705L107.568 24.3053ZM108.875 21.4365L109.849 21.8801C110.041 21.9675 110.226 22.0132 110.404 22.0172C110.583 22.0212 110.741 21.9817 110.879 21.8986C111.019 21.8166 111.128 21.6902 111.206 21.5196C111.317 21.2755 111.318 21.0441 111.209 20.8255C111.1 20.6069 110.898 20.4307 110.604 20.2968L109.602 19.8403L108.875 21.4365Z" fill="#02050A"/>
<path d="M122.62 35.6173L120.382 33.6848L125.61 27.6295L127.845 29.5595C128.462 30.0922 128.889 30.6721 129.125 31.2991C129.365 31.9259 129.41 32.5707 129.261 33.2334C129.114 33.8941 128.769 34.5388 128.226 35.1676C127.681 35.7984 127.092 36.2358 126.458 36.4798C125.826 36.7255 125.182 36.7764 124.525 36.6325C123.87 36.4867 123.235 36.1482 122.62 35.6173ZM122.923 33.7007L123.641 34.321C123.98 34.6138 124.317 34.8042 124.65 34.8924C124.987 34.9804 125.328 34.9462 125.673 34.7898C126.021 34.6331 126.383 34.337 126.76 33.9014C127.136 33.4658 127.374 33.0661 127.475 32.7024C127.577 32.3367 127.559 31.9937 127.419 31.6735C127.283 31.3529 127.041 31.0429 126.694 30.7434L125.996 30.1409L122.923 33.7007Z" fill="#02050A"/>
<path d="M128.209 40.9988L134.404 35.9365L137.933 40.2558L136.718 41.2495L134.411 38.4274L133.141 39.4656L135.267 42.0668L134.048 43.063L131.922 40.4617L130.649 41.5024L132.955 44.3244L131.739 45.3181L128.209 40.9988Z" fill="#02050A"/>
<path d="M141.654 50.5549C141.89 50.3905 142.026 50.1796 142.063 49.9222C142.102 49.6657 142.029 49.3735 141.842 49.0454C141.718 48.8282 141.587 48.6633 141.447 48.5507C141.308 48.4382 141.168 48.374 141.028 48.3584C140.889 48.3414 140.756 48.3679 140.628 48.4378C140.521 48.4926 140.441 48.5652 140.388 48.6555C140.336 48.7482 140.304 48.856 140.293 48.9791C140.286 49.1031 140.296 49.2414 140.323 49.3939C140.35 49.5464 140.391 49.7115 140.448 49.8892L140.652 50.5639C140.774 50.9503 140.847 51.3103 140.872 51.6436C140.898 51.9793 140.876 52.2855 140.806 52.5622C140.738 52.8412 140.618 53.0909 140.446 53.3113C140.275 53.5317 140.051 53.7223 139.774 53.8832C139.334 54.131 138.894 54.2348 138.455 54.1945C138.015 54.1543 137.594 53.9759 137.192 53.6596C136.791 53.3454 136.426 52.8987 136.096 52.3195C135.764 51.738 135.563 51.1816 135.491 50.6501C135.419 50.1187 135.492 49.6318 135.711 49.1896C135.929 48.7473 136.308 48.3681 136.847 48.0519L137.764 49.6606C137.548 49.8018 137.395 49.9682 137.306 50.1596C137.218 50.351 137.188 50.5614 137.216 50.7908C137.246 51.0224 137.332 51.2616 137.472 51.5082C137.601 51.7344 137.741 51.9094 137.893 52.0329C138.045 52.1588 138.2 52.2337 138.358 52.2578C138.516 52.2819 138.665 52.2551 138.807 52.1775C138.937 52.1004 139.026 51.9959 139.073 51.8638C139.123 51.7305 139.135 51.5619 139.109 51.358C139.086 51.1552 139.032 50.9103 138.946 50.6233L138.702 49.8003C138.497 49.1198 138.45 48.5188 138.56 47.9973C138.673 47.4745 138.994 47.064 139.522 46.7659C139.951 46.5186 140.393 46.4194 140.85 46.4681C141.306 46.5167 141.742 46.6954 142.158 47.0041C142.573 47.3127 142.931 47.7307 143.232 48.2578C143.539 48.7963 143.713 49.3158 143.756 49.8162C143.801 50.3175 143.723 50.7714 143.52 51.1779C143.317 51.5843 143.001 51.9129 142.571 52.1637L141.654 50.5549Z" fill="#02050A"/>
<path d="M147.345 57.2689L139.92 60.2487L139.2 58.4543L146.625 55.4745L147.345 57.2689Z" fill="#02050A"/>
<path d="M148.029 68.7009C148.178 68.619 148.303 68.5215 148.404 68.4084C148.508 68.2947 148.588 68.1666 148.644 68.0242C148.701 67.8818 148.731 67.7269 148.736 67.5595C148.743 67.3916 148.724 67.214 148.679 67.0268C148.587 66.6498 148.416 66.3456 148.167 66.1143C147.918 65.8855 147.601 65.739 147.215 65.6749C146.832 65.6102 146.393 65.6383 145.897 65.7592C145.398 65.8808 144.991 66.0565 144.674 66.2865C144.358 66.5165 144.141 66.7906 144.023 67.1089C143.904 67.4272 143.893 67.7812 143.988 68.1708C144.072 68.5149 144.199 68.7922 144.368 69.0029C144.54 69.2155 144.745 69.3585 144.983 69.4318C145.221 69.5052 145.48 69.5077 145.761 69.4392L145.804 69.7985L145.343 67.9086L146.713 67.5744L147.531 70.9254L146.502 71.1763C145.806 71.346 145.175 71.3433 144.606 71.1682C144.039 70.9957 143.56 70.6837 143.168 70.2324C142.777 69.7836 142.5 69.2252 142.337 68.5573C142.156 67.816 142.158 67.1254 142.343 66.4853C142.527 65.8453 142.878 65.2959 143.396 64.8372C143.917 64.3779 144.587 64.0482 145.407 63.8483C146.044 63.6928 146.633 63.6498 147.172 63.7192C147.714 63.788 148.199 63.9499 148.626 64.205C149.053 64.4627 149.41 64.7938 149.696 65.1984C149.983 65.6056 150.19 66.0685 150.316 66.5871C150.426 67.0375 150.464 67.4719 150.429 67.8905C150.395 68.3116 150.297 68.7001 150.135 69.056C149.973 69.4144 149.753 69.7268 149.474 69.993C149.196 70.2592 148.869 70.4623 148.493 70.6022L148.029 68.7009Z" fill="#02050A"/>
<path d="M152.11 81.6436L144.127 82.1698L144.019 80.5327L148.417 77.0523L148.414 77.0017L143.806 77.3053L143.679 75.3759L151.662 74.8498L151.771 76.5102L147.379 79.955L147.383 80.0213L151.983 79.7181L152.11 81.6436Z" fill="#02050A"/>
<path d="M147.709 98.3465C147.994 98.3816 148.236 98.3153 148.435 98.1478C148.636 97.9834 148.776 97.7166 148.856 97.3476C148.909 97.1032 148.921 96.8927 148.892 96.716C148.864 96.5394 148.802 96.3982 148.708 96.2926C148.616 96.1874 148.499 96.1182 148.357 96.0848C148.241 96.0544 148.133 96.0551 148.033 96.0867C147.933 96.1209 147.837 96.1802 147.747 96.2646C147.659 96.3521 147.574 96.4617 147.492 96.5932C147.41 96.7247 147.331 96.8755 147.255 97.0454L146.957 97.6844C146.789 98.0531 146.603 98.37 146.399 98.635C146.195 98.9025 145.974 99.1159 145.737 99.2752C145.5 99.437 145.244 99.5429 144.969 99.5927C144.695 99.6426 144.401 99.635 144.087 99.5699C143.594 99.4606 143.197 99.2443 142.897 98.9209C142.596 98.5975 142.402 98.1838 142.314 97.6798C142.225 97.1784 142.251 96.6019 142.392 95.9503C142.533 95.2961 142.754 94.7471 143.055 94.3033C143.357 93.8595 143.736 93.5459 144.194 93.3625C144.652 93.1791 145.187 93.1496 145.8 93.274L145.409 95.0837C145.153 95.0445 144.929 95.0666 144.735 95.1499C144.541 95.2332 144.378 95.3699 144.247 95.5599C144.114 95.7525 144.018 95.9875 143.958 96.2649C143.903 96.5195 143.891 96.7432 143.921 96.9363C143.951 97.1319 144.016 97.2912 144.117 97.4143C144.219 97.5375 144.348 97.6174 144.505 97.654C144.653 97.6834 144.789 97.6648 144.913 97.5983C145.039 97.5323 145.16 97.4147 145.277 97.2454C145.396 97.0792 145.519 96.8607 145.646 96.5899L146.014 95.8141C146.316 95.1706 146.682 94.6915 147.112 94.3769C147.545 94.0628 148.058 93.9712 148.65 94.1019C149.134 94.2039 149.53 94.4254 149.837 94.7662C150.145 95.1071 150.35 95.5311 150.454 96.0384C150.557 96.5457 150.545 97.0959 150.416 97.6889C150.286 98.2947 150.069 98.7981 149.766 99.1989C149.466 99.6029 149.104 99.8885 148.682 100.056C148.26 100.223 147.805 100.256 147.317 100.156L147.709 98.3465Z" fill="#02050A"/>
<path d="M141.596 111.06C140.779 110.734 140.149 110.3 139.706 109.758C139.263 109.217 139.002 108.619 138.921 107.964C138.84 107.312 138.932 106.653 139.197 105.988C139.464 105.32 139.853 104.779 140.364 104.363C140.875 103.948 141.476 103.696 142.168 103.607C142.86 103.523 143.614 103.643 144.429 103.969C145.247 104.295 145.877 104.728 146.321 105.267C146.764 105.808 147.026 106.405 147.107 107.058C147.189 107.71 147.096 108.37 146.829 109.037C146.564 109.702 146.177 110.243 145.668 110.66C145.159 111.079 144.557 111.332 143.863 111.419C143.169 111.506 142.413 111.387 141.596 111.06ZM142.329 109.225C142.813 109.418 143.249 109.512 143.638 109.508C144.026 109.506 144.357 109.411 144.631 109.223C144.904 109.038 145.112 108.766 145.255 108.408C145.397 108.053 145.434 107.713 145.364 107.388C145.295 107.063 145.121 106.765 144.842 106.493C144.563 106.225 144.181 105.994 143.697 105.8C143.214 105.607 142.778 105.512 142.39 105.514C142.001 105.518 141.67 105.614 141.396 105.802C141.122 105.99 140.914 106.261 140.772 106.617C140.629 106.975 140.592 107.315 140.663 107.638C140.732 107.962 140.906 108.259 141.186 108.528C141.465 108.799 141.846 109.031 142.329 109.225Z" fill="#02050A"/>
<path d="M136.243 112.361L143.175 116.354L142.21 118.029L136.638 114.82L134.977 117.704L133.616 116.921L136.243 112.361Z" fill="#02050A"/>
<path d="M135.958 126.925L134.767 128.444L130.706 125.26C130.237 124.892 129.916 124.459 129.743 123.963C129.571 123.468 129.547 122.946 129.67 122.397C129.795 121.849 130.065 121.311 130.479 120.783C130.899 120.248 131.359 119.854 131.861 119.603C132.365 119.353 132.877 119.253 133.397 119.303C133.919 119.355 134.414 119.565 134.884 119.933L138.944 123.117L137.751 124.638L133.823 121.558C133.605 121.387 133.375 121.283 133.131 121.244C132.885 121.207 132.647 121.236 132.415 121.333C132.184 121.43 131.979 121.592 131.801 121.819C131.623 122.047 131.515 122.283 131.478 122.529C131.439 122.776 131.467 123.015 131.562 123.245C131.656 123.474 131.812 123.674 132.029 123.845L135.958 126.925Z" fill="#02050A"/>
<path d="M130.239 130.854L131.311 132.002L126.368 136.616L125.296 135.468L127.069 133.813L122.682 129.112L124.076 127.812L128.463 132.512L130.239 130.854Z" fill="#02050A"/>
<path d="M122.388 139.436L117.693 132.958L119.259 131.823L123.953 138.301L122.388 139.436Z" fill="#02050A"/>
<path d="M108.783 142.722C108.372 141.943 108.175 141.204 108.189 140.505C108.204 139.806 108.393 139.181 108.756 138.63C109.117 138.081 109.615 137.64 110.248 137.306C110.884 136.971 111.532 136.811 112.19 136.827C112.849 136.842 113.47 137.04 114.053 137.422C114.635 137.807 115.131 138.388 115.54 139.164C115.95 139.943 116.149 140.681 116.137 141.379C116.122 142.079 115.934 142.703 115.573 143.252C115.212 143.801 114.713 144.243 114.077 144.578C113.444 144.912 112.798 145.072 112.141 145.059C111.481 145.048 110.859 144.85 110.275 144.466C109.69 144.082 109.193 143.501 108.783 142.722ZM110.532 141.801C110.774 142.262 111.045 142.617 111.344 142.866C111.64 143.116 111.954 143.258 112.284 143.293C112.612 143.329 112.947 143.258 113.288 143.078C113.626 142.9 113.875 142.665 114.033 142.372C114.191 142.08 114.252 141.741 114.216 141.353C114.178 140.967 114.037 140.544 113.794 140.083C113.552 139.622 113.282 139.267 112.986 139.017C112.687 138.768 112.372 138.626 112.042 138.591C111.712 138.556 111.377 138.628 111.038 138.806C110.697 138.986 110.449 139.221 110.293 139.512C110.135 139.804 110.075 140.143 110.113 140.529C110.149 140.916 110.289 141.34 110.532 141.801Z" fill="#02050A"/>
<path d="M99.9009 149.98L97.4511 142.364L99.0129 141.862L103.457 145.282L103.506 145.267L102.092 140.871L103.933 140.279L106.382 147.895L104.798 148.405L100.39 144.981L100.326 145.001L101.738 149.389L99.9009 149.98Z" fill="#02050A"/>
<path d="M90.1257 149.305C90.1926 149.585 90.3392 149.789 90.5656 149.917C90.7898 150.047 91.0888 150.085 91.4625 150.031C91.7099 149.995 91.9114 149.933 92.067 149.845C92.2226 149.756 92.3334 149.65 92.3994 149.524C92.4658 149.401 92.4898 149.268 92.4715 149.123C92.4595 149.004 92.4211 148.903 92.3565 148.82C92.2893 148.738 92.2004 148.669 92.0898 148.614C91.977 148.562 91.8447 148.521 91.6929 148.49C91.5411 148.459 91.3722 148.438 91.1862 148.425L90.4834 148.369C90.0793 148.341 89.7175 148.278 89.398 148.179C89.0759 148.081 88.7989 147.949 88.5669 147.783C88.3323 147.617 88.1437 147.414 88.001 147.174C87.8583 146.934 87.7627 146.656 87.7142 146.339C87.6442 145.839 87.7083 145.392 87.9063 144.997C88.1044 144.603 88.4241 144.276 88.8655 144.017C89.3043 143.759 89.8536 143.582 90.5134 143.486C91.1757 143.39 91.7674 143.406 92.2884 143.533C92.8095 143.66 93.2359 143.906 93.5678 144.271C93.8996 144.636 94.1143 145.127 94.2117 145.745L92.3793 146.01C92.3268 145.757 92.2277 145.555 92.0819 145.402C91.9361 145.25 91.7512 145.145 91.5272 145.088C91.3005 145.031 91.0468 145.023 90.7659 145.064C90.5081 145.101 90.2941 145.168 90.1238 145.264C89.9509 145.36 89.8245 145.477 89.7445 145.615C89.6645 145.753 89.6348 145.902 89.6554 146.062C89.6796 146.211 89.7445 146.332 89.85 146.424C89.9559 146.52 90.1086 146.592 90.3079 146.642C90.5051 146.695 90.7528 146.734 91.0512 146.759L91.9065 146.833C92.6148 146.891 93.1916 147.066 93.6367 147.359C94.0822 147.655 94.3472 148.104 94.4317 148.705C94.5053 149.194 94.4361 149.642 94.2241 150.049C94.0121 150.456 93.6865 150.797 93.2473 151.071C92.8082 151.345 92.2884 151.526 91.6879 151.613C91.0745 151.702 90.5272 151.675 90.0459 151.531C89.5624 151.391 89.1686 151.152 88.8644 150.814C88.5602 150.477 88.3699 150.063 88.2933 149.571L90.1257 149.305Z" fill="#02050A"/>
<path d="M81.9567 66.8002C82.0328 66.6144 82.1625 66.4555 82.3292 66.3437C82.496 66.2318 82.6922 66.1721 82.893 66.1721C83.0937 66.1721 83.29 66.2318 83.4567 66.3437C83.6234 66.4555 83.7531 66.6144 83.8293 66.8002L87.6555 76.0031C87.7272 76.1753 87.8449 76.3244 87.9958 76.434C88.1467 76.5436 88.3249 76.6094 88.5108 76.6243L98.4465 77.4201C99.345 77.4921 99.7087 78.6139 99.0245 79.1991L91.4548 85.6849C91.3134 85.8058 91.208 85.9634 91.1502 86.1403C91.0924 86.3172 91.0844 86.5066 91.1271 86.6878L93.4409 96.384C93.4874 96.5785 93.4752 96.7825 93.4058 96.9701C93.3365 97.1577 93.2131 97.3205 93.0513 97.4381C92.8894 97.5556 92.6964 97.6225 92.4965 97.6304C92.2967 97.6383 92.0989 97.5868 91.9284 97.4824L83.4205 92.2876C83.2616 92.1908 83.0791 92.1395 82.893 92.1395C82.7068 92.1395 82.5243 92.1908 82.3654 92.2876L73.8576 97.4842C73.687 97.5886 73.4893 97.6401 73.2894 97.6322C73.0896 97.6243 72.8965 97.5574 72.7347 97.4399C72.5728 97.3223 72.4494 97.1595 72.3801 96.9719C72.3108 96.7843 72.2986 96.5803 72.3451 96.3858L74.6588 86.6878C74.7018 86.5066 74.6939 86.3172 74.636 86.1402C74.5782 85.9633 74.4727 85.8057 74.3311 85.6849L66.7614 79.1991C66.6098 79.0688 66.5002 78.8965 66.4462 78.704C66.3923 78.5115 66.3965 78.3073 66.4582 78.1172C66.52 77.9271 66.6366 77.7595 66.7934 77.6354C66.9502 77.5114 67.1402 77.4365 67.3394 77.4201L77.2751 76.6243C77.461 76.6094 77.6392 76.5436 77.7901 76.434C77.941 76.3244 78.0588 76.1753 78.1304 76.0031L81.9567 66.8002Z" fill="#55E6A5"/>
</svg>
