<svg xmlns="http://www.w3.org/2000/svg" viewBox="0 0 500 500"><g id="freepik--background-complete--inject-32"><rect y="382.4" width="500" height="0.25" style="fill:#ebebeb"></rect><rect x="416.78" y="398.49" width="33.12" height="0.25" style="fill:#ebebeb"></rect><rect x="322.53" y="401.21" width="8.69" height="0.25" style="fill:#ebebeb"></rect><rect x="396.59" y="389.21" width="19.19" height="0.25" style="fill:#ebebeb"></rect><rect x="52.46" y="390.89" width="43.19" height="0.25" style="fill:#ebebeb"></rect><rect x="104.56" y="390.89" width="6.33" height="0.25" style="fill:#ebebeb"></rect><rect x="131.47" y="395.11" width="93.68" height="0.25" style="fill:#ebebeb"></rect><path d="M237,337.8H43.91a5.71,5.71,0,0,1-5.7-5.71V60.66A5.71,5.71,0,0,1,43.91,55H237a5.71,5.71,0,0,1,5.71,5.71V332.09A5.71,5.71,0,0,1,237,337.8ZM43.91,55.2a5.46,5.46,0,0,0-5.45,5.46V332.09a5.46,5.46,0,0,0,5.45,5.46H237a5.47,5.47,0,0,0,5.46-5.46V60.66A5.47,5.47,0,0,0,237,55.2Z" style="fill:#ebebeb"></path><path d="M453.31,337.8H260.21a5.72,5.72,0,0,1-5.71-5.71V60.66A5.72,5.72,0,0,1,260.21,55h193.1A5.71,5.71,0,0,1,459,60.66V332.09A5.71,5.71,0,0,1,453.31,337.8ZM260.21,55.2a5.47,5.47,0,0,0-5.46,5.46V332.09a5.47,5.47,0,0,0,5.46,5.46h193.1a5.47,5.47,0,0,0,5.46-5.46V60.66a5.47,5.47,0,0,0-5.46-5.46Z" style="fill:#ebebeb"></path><path d="M353.93,98.14A4.88,4.88,0,0,0,349,93.25a5.06,5.06,0,0,0-1.41.2,10.59,10.59,0,0,0,.11-1.5A10.35,10.35,0,0,0,337.39,81.6a10.94,10.94,0,0,0-1.91.17,9.05,9.05,0,0,0-16.78,4.58h-.15a8.35,8.35,0,0,0,0,16.69h30.62A4.9,4.9,0,0,0,353.93,98.14Z" style="fill:#f0f0f0"></path><polygon points="335.95 105.45 335.95 95.92 328.18 95.92 328.18 105.45 321.85 105.45 332.07 114.09 342.29 105.45 335.95 105.45" style="fill:#e0e0e0"></polygon><path d="M200.68,112.56a10.39,10.39,0,0,0-10.38-10.39,10.55,10.55,0,0,0-3,.44,20.92,20.92,0,0,0,.24-3.19,22,22,0,0,0-22-22,21.72,21.72,0,0,0-4.05.38,19.22,19.22,0,0,0-35.64,9.72l-.32,0a17.72,17.72,0,1,0,0,35.43h65.05A10.38,10.38,0,0,0,200.68,112.56Z" style="fill:#f0f0f0"></path><polygon points="146 113.36 146 133.61 162.51 133.61 162.51 113.36 175.96 113.36 154.25 95.02 132.55 113.36 146 113.36" style="fill:#e0e0e0"></polygon><polyline points="208.97 163.13 208.97 135.9 292.35 135.9 292.35 162.86" style="fill:none;stroke:#e6e6e6;stroke-miterlimit:10"></polyline><line x1="251.89" y1="110.24" x2="251.89" y2="163.06" style="fill:none;stroke:#e6e6e6;stroke-miterlimit:10"></line><rect x="236.53" y="99.87" width="30.74" height="19.25" rx="1.19" style="fill:#f0f0f0"></rect><rect x="237.59" y="102.13" width="28.61" height="16.22" rx="0.42" style="fill:#e0e0e0"></rect><rect x="193.6" y="160.66" width="30.74" height="19.25" rx="1.19" style="fill:#f0f0f0"></rect><rect x="194.66" y="162.92" width="28.61" height="16.22" rx="0.42" style="fill:#e0e0e0"></rect><rect x="236.53" y="160.66" width="30.74" height="19.25" rx="1.19" style="fill:#f0f0f0"></rect><rect x="237.59" y="162.92" width="28.61" height="16.22" rx="0.42" style="fill:#e0e0e0"></rect><rect x="277.05" y="160.66" width="30.74" height="19.25" rx="1.19" style="fill:#f0f0f0"></rect><rect x="278.11" y="162.92" width="28.61" height="16.22" rx="0.42" style="fill:#e0e0e0"></rect><rect x="245.65" y="129.66" width="12.48" height="12.48" rx="0.81" transform="translate(-22.32 217.92) rotate(-45)" style="fill:#e0e0e0;isolation:isolate"></rect><rect x="68.21" y="122.65" width="21.75" height="13.03" rx="0.87" style="fill:#e0e0e0;opacity:0.8"></rect><rect x="57.1" y="150.68" width="17.59" height="9.95" rx="0.87" style="fill:#e0e0e0"></rect><rect x="83.79" y="150.68" width="17.59" height="9.95" rx="0.87" style="fill:#e0e0e0"></rect><rect x="75.74" y="171.74" width="9.23" height="8.5" rx="0.87" style="fill:#e0e0e0"></rect><rect x="87.46" y="171.74" width="9.23" height="8.5" rx="0.87" style="fill:#e0e0e0"></rect><rect x="99.19" y="171.74" width="9.23" height="8.5" rx="0.87" style="fill:#e0e0e0"></rect><rect x="48.61" y="171.74" width="9.23" height="8.5" rx="0.87" style="fill:#e0e0e0"></rect><rect x="61.33" y="171.74" width="9.23" height="8.5" rx="0.87" style="fill:#e0e0e0"></rect><polygon points="91.58 150.68 92.58 150.68 92.58 143.68 79.58 143.68 79.58 135.68 78.58 135.68 78.58 143.68 65.58 143.68 65.58 150.68 66.58 150.68 66.58 144.68 91.58 144.68 91.58 150.68" style="fill:#e0e0e0"></polygon><polygon points="65.58 166.68 52.58 166.68 52.58 171.68 53.58 171.68 53.58 167.68 65.58 167.68 65.58 171.68 66.58 171.68 66.58 160.68 65.58 160.68 65.58 166.68" style="fill:#e0e0e0"></polygon><polygon points="92.58 167.68 92.58 160.68 91.58 160.68 91.58 167.68 79.58 167.68 79.58 171.68 80.58 171.68 80.58 168.68 91.58 168.68 91.58 171.68 92.58 171.68 92.58 168.68 103.58 168.68 103.58 171.68 104.58 171.68 104.58 167.68 92.58 167.68" style="fill:#e0e0e0"></polygon><path d="M381,125.78V133l3.7.35a19.32,19.32,0,0,0,2.76,6.64l-2.38,2.87,5.08,5.08,2.87-2.38a19.13,19.13,0,0,0,6.64,2.76L400,152h7.18l.35-3.7a19.13,19.13,0,0,0,6.64-2.76l2.87,2.38,5.08-5.08L419.75,140a19.32,19.32,0,0,0,2.76-6.64l3.7-.35v-7.18l-3.7-.35a19.19,19.19,0,0,0-2.76-6.63l2.38-2.87-5.08-5.08-2.87,2.37a19.32,19.32,0,0,0-6.64-2.76l-.35-3.7H400l-.35,3.7a19.32,19.32,0,0,0-6.64,2.76l-2.87-2.37-5.08,5.08,2.38,2.87a19.19,19.19,0,0,0-2.76,6.63Zm22.61-6.13a9.73,9.73,0,1,1-9.73,9.72A9.73,9.73,0,0,1,403.6,119.65Z" style="fill:#f5f5f5"></path><path d="M385.63,178.2a15.07,15.07,0,0,0,5.2-2.17l2.25,1.87,4-4-1.86-2.25a15.13,15.13,0,0,0,2.16-5.2l2.9-.28v-5.63l-2.9-.27a15.05,15.05,0,0,0-2.16-5.2l1.86-2.25-4-4-2.25,1.86a15.05,15.05,0,0,0-5.2-2.16l-.27-2.9h-5.63l-.27,2.9a15.05,15.05,0,0,0-5.2,2.16L372,148.86l-4,4,1.86,2.25a15.05,15.05,0,0,0-2.16,5.2l-2.9.27v5.63l2.9.28a15.13,15.13,0,0,0,2.16,5.2L368,173.92l4,4,2.25-1.87a15.07,15.07,0,0,0,5.2,2.17l.27,2.89h5.63Zm-10.71-14.82a7.63,7.63,0,1,1,7.63,7.62A7.63,7.63,0,0,1,374.92,163.38Z" style="fill:#f5f5f5"></path><path d="M373.07,147.73l1.89,1.56,3.35-3.34-1.57-1.89a12.62,12.62,0,0,0,1.82-4.37l2.43-.23v-4.72l-2.43-.23a12.62,12.62,0,0,0-1.82-4.37l1.57-1.89L375,124.91l-1.89,1.56a12.66,12.66,0,0,0-4.36-1.82l-.23-2.43h-4.73l-.23,2.43a12.62,12.62,0,0,0-4.37,1.82l-1.89-1.56-3.34,3.34,1.56,1.89a12.61,12.61,0,0,0-1.81,4.37l-2.44.23v4.72l2.44.23a12.61,12.61,0,0,0,1.81,4.37L353.92,146l3.34,3.34,1.89-1.56a12.42,12.42,0,0,0,4.37,1.81l.23,2.44h4.73l.23-2.44A12.45,12.45,0,0,0,373.07,147.73ZM359.71,137.1a6.4,6.4,0,1,1,6.4,6.4A6.4,6.4,0,0,1,359.71,137.1Z" style="fill:#f5f5f5"></path><rect x="372.24" y="324.03" width="67.15" height="43.67" style="fill:#f5f5f5"></rect><rect x="374.69" y="332.22" width="62.23" height="33.3" style="fill:#e0e0e0"></rect><rect x="379.76" y="337.2" width="46.04" height="1.43" style="fill:#f5f5f5"></rect><rect x="379.76" y="341.58" width="22.09" height="1.43" style="fill:#f5f5f5"></rect><rect x="379.76" y="345.97" width="27.82" height="1.43" style="fill:#f5f5f5"></rect><rect x="379.76" y="350.36" width="9.8" height="1.43" style="fill:#f5f5f5"></rect><rect x="379.76" y="354.75" width="6.35" height="1.43" style="fill:#f5f5f5"></rect><rect x="47.88" y="323.89" width="47.78" height="29.47" transform="translate(-1.54 0.33) rotate(-0.26)" style="fill:#ebebeb"></rect><path d="M66.14,346.06a1,1,0,0,1-.59-.19l-8.71-6.37a1,1,0,0,1-.41-.8,1,1,0,0,1,.4-.81l8.66-6.45a1,1,0,1,1,1.19,1.61l-7.57,5.64,7.62,5.56a1,1,0,0,1-.59,1.81Z" style="fill:#fafafa"></path><path d="M77.46,346a1,1,0,0,1-.81-.4,1,1,0,0,1,.21-1.4l7.57-5.64L76.81,333A1,1,0,1,1,78,331.39l8.71,6.36a1,1,0,0,1,.41.81,1,1,0,0,1-.4.8l-8.66,6.45A1,1,0,0,1,77.46,346Z" style="fill:#fafafa"></path><path d="M69.52,346.05a1,1,0,0,1-.33-.06,1,1,0,0,1-.61-1.27l4.49-12.84a1,1,0,1,1,1.89.66l-4.49,12.84A1,1,0,0,1,69.52,346.05Z" style="fill:#fafafa"></path></g><g id="freepik--Shadow--inject-32"><ellipse id="freepik--path--inject-32" cx="250" cy="416.24" rx="193.89" ry="11.32" style="fill:#f5f5f5"></ellipse></g><g id="freepik--Ladder--inject-32"><polygon points="334.38 416.24 341.73 416.24 351.73 361 344.38 361 334.38 416.24" style="fill:#263238"></polygon><polygon points="334.38 416.24 341.73 416.24 351.73 361 344.38 361 334.38 416.24" style="fill:#fff;opacity:0.2"></polygon><polygon points="334.38 416.24 339.73 416.24 349.73 361 344.38 361 334.38 416.24" style="fill:#fff;opacity:0.2"></polygon><path d="M313.69,377.43h29.39a1.61,1.61,0,0,0,1.62-1.62h0a1.61,1.61,0,0,0-1.62-1.62H313.69a1.61,1.61,0,0,0-1.62,1.62h0A1.61,1.61,0,0,0,313.69,377.43Z" style="fill:#263238"></path><path d="M310.42,395.93h29.4a1.63,1.63,0,0,0,1.62-1.63h0a1.63,1.63,0,0,0-1.62-1.62h-29.4a1.63,1.63,0,0,0-1.62,1.62h0A1.63,1.63,0,0,0,310.42,395.93Z" style="fill:#263238"></path><polygon points="304.38 416.24 311.73 416.24 321.73 361 314.38 361 304.38 416.24" style="fill:#263238"></polygon><polygon points="304.38 416.24 311.73 416.24 321.73 361 314.38 361 304.38 416.24" style="fill:#fff;opacity:0.2"></polygon><polygon points="304.38 416.24 309.73 416.24 319.73 361 314.38 361 304.38 416.24" style="fill:#fff;opacity:0.2"></polygon><polygon points="372.73 416.24 365.38 416.24 355.38 361 362.73 361 372.73 416.24" style="fill:#263238"></polygon><polygon points="372.73 416.24 365.38 416.24 355.38 361 362.73 361 372.73 416.24" style="fill:#fff;opacity:0.4"></polygon><polygon points="370.73 416.24 365.38 416.24 355.38 361 360.73 361 370.73 416.24" style="fill:#fff;opacity:0.2"></polygon><path d="M359.82,377.43h-29.4a1.62,1.62,0,0,1-1.62-1.62h0a1.62,1.62,0,0,1,1.62-1.62h29.4a1.62,1.62,0,0,1,1.62,1.62h0A1.62,1.62,0,0,1,359.82,377.43Z" style="fill:#263238"></path><path d="M363.08,395.93H333.69a1.62,1.62,0,0,1-1.62-1.63h0a1.62,1.62,0,0,1,1.62-1.62h29.39a1.62,1.62,0,0,1,1.62,1.62h0A1.62,1.62,0,0,1,363.08,395.93Z" style="fill:#263238"></path><path d="M359.82,377.43h-29.4a1.62,1.62,0,0,1-1.62-1.62h0a1.62,1.62,0,0,1,1.62-1.62h29.4a1.62,1.62,0,0,1,1.62,1.62h0A1.62,1.62,0,0,1,359.82,377.43Z" style="fill:#fff;opacity:0.2"></path><path d="M363.08,395.93H333.69a1.62,1.62,0,0,1-1.62-1.63h0a1.62,1.62,0,0,1,1.62-1.62h29.39a1.62,1.62,0,0,1,1.62,1.62h0A1.62,1.62,0,0,1,363.08,395.93Z" style="fill:#fff;opacity:0.2"></path><polygon points="342.73 416.24 335.38 416.24 325.38 361 332.73 361 342.73 416.24" style="fill:#263238"></polygon><polygon points="342.73 416.24 335.38 416.24 325.38 361 332.73 361 342.73 416.24" style="fill:#fff;opacity:0.4"></polygon><polygon points="340.73 416.24 335.38 416.24 325.38 361 330.73 361 340.73 416.24" style="fill:#fff;opacity:0.2"></polygon><rect x="311.31" y="358.36" width="55.47" height="5.27" rx="1.19" style="fill:#263238"></rect><rect x="311.31" y="358.36" width="22.56" height="5.27" rx="1.19" style="fill:#fff;opacity:0.2"></rect></g><g id="freepik--Screen--inject-32"><rect x="127.2" y="371.85" width="67.15" height="43.67" style="fill:#B16CEA"></rect><rect x="127.2" y="371.85" width="67.15" height="43.67" style="fill:#fff;opacity:0.6000000000000001;isolation:isolate"></rect><rect x="129.66" y="380.04" width="62.24" height="33.3" style="fill:#B16CEA"></rect><rect x="134.73" y="385.01" width="46.04" height="1.43" style="fill:#fff"></rect><rect x="134.73" y="389.4" width="22.09" height="1.43" style="fill:#fff"></rect><rect x="134.73" y="393.79" width="27.82" height="1.43" style="fill:#fff"></rect><rect x="134.73" y="398.17" width="9.8" height="1.43" style="fill:#fff"></rect><rect x="134.73" y="402.56" width="6.35" height="1.43" style="fill:#fff"></rect></g><g id="freepik--Device--inject-32"><polygon points="277.33 416.24 222.67 416.24 231.92 343.57 268.08 343.57 277.33 416.24" style="fill:#B16CEA"></polygon><polygon points="277.33 416.24 222.67 416.24 229 366.52 231.93 343.57 268.07 343.57 272.39 377.43 277.33 416.24" style="fill:#fff;opacity:0.6000000000000001"></polygon><polygon points="272.39 377.43 229 366.52 231.93 343.57 268.07 343.57 272.39 377.43" style="opacity:0.1;isolation:isolate"></polygon><path d="M378.87,164.38H121.13a6.59,6.59,0,0,0-6.59,6.6V345.46a6.59,6.59,0,0,0,6.59,6.59H378.87a6.59,6.59,0,0,0,6.59-6.59V171A6.59,6.59,0,0,0,378.87,164.38Z" style="fill:#B16CEA"></path><path d="M378.87,164.38H121.13a6.59,6.59,0,0,0-6.59,6.6V345.46a6.59,6.59,0,0,0,6.59,6.59H378.87a6.59,6.59,0,0,0,6.59-6.59V171A6.59,6.59,0,0,0,378.87,164.38Z" style="fill:#fff;opacity:0.7000000000000001"></path><rect x="123.22" y="170.84" width="253.57" height="168.25" style="fill:#B16CEA"></rect><rect x="203.05" y="410.78" width="93.89" height="5.37" rx="1.04" style="fill:#B16CEA"></rect><rect x="203.05" y="410.78" width="93.89" height="5.37" rx="1.04" style="fill:#fff;opacity:0.7000000000000001"></rect><rect x="123.22" y="171" width="253.57" height="25.08" style="opacity:0.2;isolation:isolate"></rect><rect x="123.22" y="196.38" width="108.66" height="142.71" style="fill:#fff;opacity:0.4"></rect><polyline points="337.76 232.78 337.76 235.28 335.26 235.28" style="fill:none;stroke:#fff;stroke-miterlimit:10"></polyline><line x1="329.98" y1="235.28" x2="248.08" y2="235.28" style="fill:none;stroke:#fff;stroke-miterlimit:10;stroke-dasharray:5.283740043640137,5.283740043640137"></line><polyline points="245.44 235.28 242.94 235.28 242.94 232.78" style="fill:none;stroke:#fff;stroke-miterlimit:10"></polyline><line x1="242.94" y1="228.25" x2="242.94" y2="185.22" style="fill:none;stroke:#fff;stroke-miterlimit:10;stroke-dasharray:4.529409885406494,4.529409885406494"></line><polyline points="242.94 182.96 242.94 180.46 245.44 180.46" style="fill:none;stroke:#fff;stroke-miterlimit:10"></polyline><line x1="250.72" y1="180.46" x2="332.62" y2="180.46" style="fill:none;stroke:#fff;stroke-miterlimit:10;stroke-dasharray:5.283740043640137,5.283740043640137"></line><polyline points="335.26 180.46 337.76 180.46 337.76 182.96" style="fill:none;stroke:#fff;stroke-miterlimit:10"></polyline><line x1="337.76" y1="187.49" x2="337.76" y2="230.52" style="fill:none;stroke:#fff;stroke-miterlimit:10;stroke-dasharray:4.529409885406494,4.529409885406494"></line><rect x="336.18" y="178.87" width="3.17" height="3.17" style="fill:#B16CEA;stroke:#fff;stroke-miterlimit:10"></rect><rect x="336.18" y="233.7" width="3.17" height="3.17" style="fill:#B16CEA;stroke:#fff;stroke-miterlimit:10"></rect><rect x="241.35" y="178.87" width="3.17" height="3.17" style="fill:#B16CEA;stroke:#fff;stroke-miterlimit:10"></rect><rect x="241.35" y="233.7" width="3.17" height="3.17" style="fill:#B16CEA;stroke:#fff;stroke-miterlimit:10"></rect><rect x="288.77" y="178.87" width="3.17" height="3.17" style="fill:#B16CEA;stroke:#fff;stroke-miterlimit:10"></rect><rect x="288.77" y="233.7" width="3.17" height="3.17" style="fill:#B16CEA;stroke:#fff;stroke-miterlimit:10"></rect><rect x="336.18" y="206.28" width="3.17" height="3.17" style="fill:#B16CEA;stroke:#fff;stroke-miterlimit:10"></rect><rect x="241.35" y="206.28" width="3.17" height="3.17" style="fill:#B16CEA;stroke:#fff;stroke-miterlimit:10"></rect><rect x="304.05" y="198.87" width="26.99" height="9.99" rx="1.89" style="fill:#fff;opacity:0.7000000000000001"></rect><rect x="264.05" y="198.87" width="26.99" height="9.99" rx="1.89" style="fill:#fff;opacity:0.7000000000000001"></rect><rect x="212.56" y="320.46" width="26.99" height="9.99" rx="1.89" style="fill:#fff;opacity:0.7000000000000001"></rect><line x1="360.05" y1="179.92" x2="368.49" y2="179.92" style="fill:none;stroke:#fff;stroke-linecap:round;stroke-linejoin:round;stroke-width:1.5px"></line><line x1="360.05" y1="183.92" x2="368.49" y2="183.92" style="fill:none;stroke:#fff;stroke-linecap:round;stroke-linejoin:round;stroke-width:1.5px"></line><line x1="360.05" y1="187.92" x2="368.49" y2="187.92" style="fill:none;stroke:#fff;stroke-linecap:round;stroke-linejoin:round;stroke-width:1.5px"></line><rect x="140.41" y="218.5" width="85.05" height="85.05" style="fill:#fff;opacity:0.5"></rect><line x1="176.01" y1="225.45" x2="176.01" y2="298.82" style="fill:none;stroke:#B16CEA;stroke-miterlimit:10"></line><path d="M212.69,298.82h0A36.69,36.69,0,0,1,176,262.13h0a36.68,36.68,0,0,1,36.68-36.68h0" style="fill:none;stroke:#B16CEA;stroke-miterlimit:10"></path><rect x="211.11" y="223.87" width="3.17" height="3.17" style="fill:#fff;stroke:#B16CEA;stroke-miterlimit:10"></rect><rect x="211.11" y="297.23" width="3.17" height="3.17" style="fill:#fff;stroke:#B16CEA;stroke-miterlimit:10"></rect><rect x="174.43" y="260.55" width="3.17" height="3.17" style="fill:#fff;stroke:#B16CEA;stroke-miterlimit:10"></rect><path d="M176.83,225.45a.82.82,0,1,1-.82-.82A.83.83,0,0,1,176.83,225.45Z" style="fill:#fff;stroke:#B16CEA;stroke-miterlimit:10"></path><path d="M176.83,298.82A.82.82,0,1,1,176,298,.82.82,0,0,1,176.83,298.82Z" style="fill:#fff;stroke:#B16CEA;stroke-miterlimit:10"></path><path d="M316.93,321.67H291.18a7.44,7.44,0,0,1-7.44-7.44h0a7.44,7.44,0,0,1,7.44-7.44h25.75a7.44,7.44,0,0,1,7.44,7.44h0A7.44,7.44,0,0,1,316.93,321.67Z" style="fill:#fff;opacity:0.7000000000000001"></path><path d="M339.55,258.22H260a1.63,1.63,0,0,1-1.63-1.63h0A1.62,1.62,0,0,1,260,255h79.54a1.62,1.62,0,0,1,1.63,1.62h0A1.63,1.63,0,0,1,339.55,258.22Z" style="fill:#fff;opacity:0.7000000000000001"></path><path d="M339.55,270.09H260a1.62,1.62,0,0,1-1.63-1.62h0a1.63,1.63,0,0,1,1.63-1.63h79.54a1.63,1.63,0,0,1,1.63,1.63h0A1.62,1.62,0,0,1,339.55,270.09Z" style="fill:#fff;opacity:0.7000000000000001"></path><path d="M339.55,282H290a1.63,1.63,0,0,1-1.63-1.62h0a1.63,1.63,0,0,1,1.63-1.63h49.54a1.63,1.63,0,0,1,1.63,1.63h0A1.63,1.63,0,0,1,339.55,282Z" style="fill:#fff;opacity:0.7000000000000001"></path><rect x="131.23" y="177.95" width="5.62" height="5.62" style="opacity:0.4;isolation:isolate"></rect><rect x="142.15" y="177.95" width="5.62" height="5.62" rx="1.44" style="opacity:0.4;isolation:isolate"></rect><rect x="153.08" y="177.95" width="5.62" height="5.62" rx="2.57" style="opacity:0.4;isolation:isolate"></rect><path d="M148.45,316.5v-2.19l-1.12-.1a6.18,6.18,0,0,0-.84-2l.72-.87-1.55-1.55-.87.72a6.18,6.18,0,0,0-2-.84l-.1-1.12h-2.19l-.11,1.12a6.22,6.22,0,0,0-2,.84l-.87-.72-1.55,1.55.72.87a5.78,5.78,0,0,0-.84,2l-1.13.1v2.19l1.13.11a5.81,5.81,0,0,0,.84,2l-.72.88,1.55,1.54.87-.72a5.81,5.81,0,0,0,2,.84l.11,1.13h2.19l.1-1.13a5.78,5.78,0,0,0,2-.84l.87.72,1.55-1.54-.72-.88a6,6,0,0,0,.84-2Zm-6.89,1.87a3,3,0,1,1,3-3A3,3,0,0,1,141.56,318.37Z" style="fill:#fff;opacity:0.9"></path><path d="M157.33,322.68V321l-.88-.09a4.61,4.61,0,0,0-.66-1.58l.56-.69-1.21-1.21-.68.57a4.66,4.66,0,0,0-1.59-.66l-.08-.89h-1.72l-.08.89a4.66,4.66,0,0,0-1.59.66l-.68-.57-1.22,1.21.57.69a4.61,4.61,0,0,0-.66,1.58l-.88.09v1.71l.88.09a4.61,4.61,0,0,0,.66,1.58l-.57.69,1.22,1.21.68-.57a4.66,4.66,0,0,0,1.59.66l.08.88h1.72l.08-.88a4.66,4.66,0,0,0,1.59-.66l.68.57,1.21-1.21-.56-.69a4.61,4.61,0,0,0,.66-1.58Zm-5.4,1.47a2.33,2.33,0,1,1,2.32-2.33A2.32,2.32,0,0,1,151.93,324.15Z" style="fill:#fff;opacity:0.6000000000000001"></path><path d="M148.45,327.55v-1.44l-.74-.07a3.9,3.9,0,0,0-.55-1.33l.48-.57-1-1-.58.47a3.9,3.9,0,0,0-1.33-.55l-.07-.74H143.2l-.07.74a3.9,3.9,0,0,0-1.33.55l-.58-.47-1,1,.48.57a3.9,3.9,0,0,0-.55,1.33l-.75.07v1.44l.75.07a3.87,3.87,0,0,0,.55,1.34l-.48.57,1,1,.58-.48a3.73,3.73,0,0,0,1.33.56l.07.74h1.44l.07-.74a3.73,3.73,0,0,0,1.33-.56l.58.48,1-1-.48-.57a3.87,3.87,0,0,0,.55-1.34Zm-4.53,1.23a1.95,1.95,0,1,1,2-1.95A1.95,1.95,0,0,1,143.92,328.78Z" style="fill:#fff;opacity:0.4"></path><polygon points="337.18 179.89 341.42 191.23 348.51 184.13 337.18 179.89" style="fill:#B16CEA"></polygon><rect x="343.85" y="185.2" width="2.24" height="4.97" transform="translate(-31.67 298.9) rotate(-45)" style="fill:#B16CEA"></rect><polygon points="348.51 184.13 337.18 179.89 341.42 191.23 344.18 188.47 345.93 190.23 347.51 188.65 345.76 186.89 348.51 184.13" style="fill:#fff;opacity:0.4"></polygon><path d="M163.46,220.42l10.67,4-5.59-5.59a1.09,1.09,0,0,1-1.31-.17,1.1,1.1,0,0,1,1.56-1.56,1.09,1.09,0,0,1,.17,1.31l5.59,5.59-4-10.67-3.54.78-.13-1.27-.67-.67-3.92,3.92.67.67,1.28.13Z" style="fill:#263238"></path><path d="M163.46,220.42l10.67,4-5.59-5.59a1.09,1.09,0,0,1-1.31-.17,1.1,1.1,0,0,1,1.56-1.56,1.09,1.09,0,0,1,.17,1.31l5.59,5.59-4-10.67-3.54.78-.13-1.27-.67-.67-3.92,3.92.67.67,1.28.13Z" style="fill:#fff;opacity:0.2"></path><g style="opacity:0.1"><polygon points="160.3 170.84 122.72 311.26 122.72 170.84 160.3 170.84" style="fill:#fff"></polygon><polygon points="202.71 170.84 157.68 339.09 126.66 339.09 171.68 170.84 202.71 170.84" style="fill:#fff"></polygon><polygon points="247.81 170.84 202.78 339.09 188.75 339.09 233.78 170.84 247.81 170.84" style="fill:#fff"></polygon><polygon points="289.34 170.84 244.31 339.09 239.29 339.09 284.32 170.84 289.34 170.84" style="fill:#fff"></polygon></g></g></svg>
