<?xml version="1.0" encoding="utf-8"?>
<!-- Generator: Adobe Illustrator 16.0.0, SVG Export Plug-In . SVG Version: 6.00 Build 0)  -->
<!DOCTYPE svg PUBLIC "-//W3C//DTD SVG 1.1//EN" "http://www.w3.org/Graphics/SVG/1.1/DTD/svg11.dtd">
<svg version="1.1" id="Layer_1" xmlns="http://www.w3.org/2000/svg" xmlns:xlink="http://www.w3.org/1999/xlink" x="0px" y="0px"
	 width="201.667px" height="207.667px" viewBox="51.167 51.34 201.667 207.667"
	 enable-background="new 51.167 51.34 201.667 207.667" xml:space="preserve">
<path fill="#FDBC31" d="M69.264,228.582c-14.541-16.93-14.137-41.112-15.793-63.359c-1.517-20.365-2.361-41.067,6.652-59.383
	c9.093-18.479,24.81-32.784,43.232-41.99c18.32-9.154,38.775-10.225,59.237-9.211c22.872,1.133,49.227-1.007,65.24,15.376
	c15.988,16.358,10.656,42.838,13.798,65.489c3.063,22.076,14.455,45.244,4.315,65.08c-10.135,19.831-35.141,25-55.248,34.573
	c-19.475,9.271-38.263,21.371-59.809,20.205C107.969,254.121,84.225,246.001,69.264,228.582z"/>
</svg>
