<svg width="195" height="193" viewBox="0 0 195 193" fill="none" xmlns="http://www.w3.org/2000/svg">
<path fill-rule="evenodd" clip-rule="evenodd" d="M86.1304 0.1219C108.117 -1.20092 129.33 8.39005 146.859 21.7052C164.107 34.8061 175.458 53.4481 183.026 73.7223C190.89 94.7863 200.86 119.019 190.672 139.066C180.609 158.867 154.129 161.672 133.779 170.629C118.209 177.482 102.925 182.348 86.1304 185.079C65.7198 188.398 43.228 199.146 25.691 188.205C8.10684 177.235 5.71688 152.832 1.84579 132.495C-1.59101 114.439 -0.0263064 96.5107 4.86477 78.7926C9.97935 60.2647 16.6766 42.0848 30.4965 28.7061C45.8452 13.8476 64.7896 1.40587 86.1304 0.1219Z" fill="#FDBC31"/>
</svg>
