<svg width="185" height="183" viewBox="0 0 185 183" fill="none" xmlns="http://www.w3.org/2000/svg">
<path fill-rule="evenodd" clip-rule="evenodd" d="M81.7135 0.115584C102.572 -1.13869 122.697 7.95533 139.328 20.5806C155.691 33.0027 166.46 50.6788 173.64 69.9025C181.101 89.8751 190.559 112.852 180.894 131.86C171.347 150.635 146.225 153.295 126.918 161.788C112.147 168.286 97.6467 172.899 81.7135 175.489C62.3496 178.636 41.0112 188.828 24.3735 178.454C7.69111 168.052 5.42371 144.913 1.75113 125.63C-1.50942 108.51 -0.0249574 91.5102 4.61529 74.71C9.46759 57.1422 15.8214 39.9042 28.9326 27.2188C43.4942 13.1301 61.4671 1.33303 81.7135 0.115584Z" fill="#07C98B"/>
</svg>
