<svg width="171" height="362" viewBox="0 0 171 362" fill="none" xmlns="http://www.w3.org/2000/svg">
<path fill-rule="evenodd" clip-rule="evenodd" d="M126.21 324.129C98.2407 314.289 82.6999 285.986 66.0639 261.313C50.8356 238.727 36.159 215.297 34.4259 188.003C32.6773 160.463 41.326 133.305 56.4714 110.237C71.5319 87.2983 94.4032 72.2934 118.664 59.6985C145.78 45.6213 174.747 25.4066 204.051 33.6218C233.311 41.8249 244.691 76.1081 263.306 100.249C281.45 123.778 309.918 142.968 311.361 172.784C312.803 202.591 287.397 225.409 270.552 250.037C254.238 273.889 240.589 300.557 214.978 313.704C187.735 327.688 154.987 334.253 126.21 324.129Z" fill="#FEC64E"/>
</svg>
