<svg width="183" height="301" viewBox="0 0 183 301" fill="none" xmlns="http://www.w3.org/2000/svg">
<path fill-rule="evenodd" clip-rule="evenodd" d="M53.1083 0.241416C82.6714 2.50734 105.008 25.8236 127.463 45.3504C148.018 63.2247 168.259 82.0579 176.997 107.974C185.814 134.122 184.489 162.593 175.83 188.795C167.22 214.851 149.011 235.264 128.837 253.709C106.288 274.324 83.5398 301.348 53.1083 300.997C22.7219 300.646 2.85675 270.476 -21.3722 251.976C-44.9877 233.945 -77.4523 222.777 -86.5624 194.35C-95.67 165.932 -77.0357 137.316 -67.1392 109.167C-57.5546 81.9053 -51.2725 52.6133 -29.9364 33.2861C-7.24111 12.7277 22.6917 -2.08994 53.1083 0.241416Z" fill="#07C98B"/>
</svg>
