<svg width="219" height="241" viewBox="0 0 219 241" fill="none" xmlns="http://www.w3.org/2000/svg">
<path fill-rule="evenodd" clip-rule="evenodd" d="M114.02 0.193293C137.714 2.00754 155.616 20.676 173.613 36.3104C190.087 50.6218 206.31 65.7008 213.313 86.4509C220.38 107.387 219.318 130.183 212.378 151.162C205.477 172.023 190.883 188.367 174.714 203.136C156.642 219.642 138.41 241.278 114.02 240.997C89.6662 240.717 73.7449 216.561 54.326 201.748C35.3989 187.311 9.37953 178.37 2.07802 155.609C-5.22139 132.856 9.71343 109.944 17.6452 87.4064C25.3269 65.5787 30.3619 42.1256 47.4621 26.651C65.6517 10.1906 89.642 -1.67334 114.02 0.193293Z" fill="currentColor"/>
</svg>
