<?xml version="1.0" encoding="iso-8859-1"?>
<!-- Generator: Adobe Illustrator 19.0.0, SVG Export Plug-In . SVG Version: 6.00 Build 0)  -->
<svg version="1.1" id="Layer_1" xmlns="http://www.w3.org/2000/svg" xmlns:xlink="http://www.w3.org/1999/xlink" x="0px" y="0px"
	 viewBox="0 0 512 512" style="enable-background:new 0 0 512 512;" xml:space="preserve">
<g>
	<g>
		<path d="M474.411,10.667H120.704c-20.821,0-35.371,14.549-35.371,35.371V224h-64C9.536,224,0,233.557,0,245.333v192
			c0,35.285,28.715,64,64,64h410.411c20.736,0,37.589-16.875,37.589-37.589V48.256C512,27.541,495.147,10.667,474.411,10.667z
			 M85.333,437.333c0,10.56-10.773,21.333-21.333,21.333c-11.776,0-21.333-9.579-21.333-21.333V266.667h42.667V437.333z M256,416
			h-64c-11.797,0-21.333-9.557-21.333-21.333s9.536-21.333,21.333-21.333h64c11.797,0,21.333,9.557,21.333,21.333
			S267.797,416,256,416z M256,352h-64c-11.797,0-21.333-9.557-21.333-21.333s9.536-21.333,21.333-21.333h64
			c11.797,0,21.333,9.557,21.333,21.333S267.797,352,256,352z M256,288h-64c-11.797,0-21.333-9.557-21.333-21.333
			c0-11.776,9.536-21.333,21.333-21.333h64c11.797,0,21.333,9.557,21.333,21.333C277.333,278.443,267.797,288,256,288z
			 M277.333,202.667c0,11.776-9.536,21.333-21.333,21.333h-64c-11.797,0-21.333-9.557-21.333-21.333v-85.333
			C170.667,105.557,180.203,96,192,96h64c11.797,0,21.333,9.557,21.333,21.333V202.667z M405.333,416h-64
			C329.536,416,320,406.443,320,394.667s9.536-21.333,21.333-21.333h64c11.797,0,21.333,9.557,21.333,21.333
			S417.131,416,405.333,416z M405.333,352h-64C329.536,352,320,342.443,320,330.667s9.536-21.333,21.333-21.333h64
			c11.797,0,21.333,9.557,21.333,21.333S417.131,352,405.333,352z M405.333,288h-64C329.536,288,320,278.443,320,266.667
			c0-11.776,9.536-21.333,21.333-21.333h64c11.797,0,21.333,9.557,21.333,21.333C426.667,278.443,417.131,288,405.333,288z
			 M426.667,202.667c0,11.776-9.536,21.333-21.333,21.333h-64C329.536,224,320,214.443,320,202.667v-85.333
			C320,105.557,329.536,96,341.333,96h64c11.797,0,21.333,9.557,21.333,21.333V202.667z"/>
	</g>
</g>
<g>
</g>
<g>
</g>
<g>
</g>
<g>
</g>
<g>
</g>
<g>
</g>
<g>
</g>
<g>
</g>
<g>
</g>
<g>
</g>
<g>
</g>
<g>
</g>
<g>
</g>
<g>
</g>
<g>
</g>
</svg>
