<?xml version="1.0" encoding="utf-8"?>
<!-- Generator: Adobe Illustrator 16.0.0, SVG Export Plug-In . SVG Version: 6.00 Build 0)  -->
<!DOCTYPE svg PUBLIC "-//W3C//DTD SVG 1.1//EN" "http://www.w3.org/Graphics/SVG/1.1/DTD/svg11.dtd">
<svg version="1.1" id="Layer_1" xmlns="http://www.w3.org/2000/svg" xmlns:xlink="http://www.w3.org/1999/xlink" x="0px" y="0px"
	 width="321px" height="610px" viewBox="29.5 39.5 321 610" enable-background="new 29.5 39.5 321 610" xml:space="preserve">
<filter  id="filter-2" width="152.7%" height="126.3%" x="-26.4%" y="-9.4%" filterUnits="objectBoundingBox">
	<feOffset  dy="20" dx="0" in="SourceAlpha" result="shadowOffsetOuter1"></feOffset>
	<feGaussianBlur  in="shadowOffsetOuter1" result="shadowBlurOuter1" stdDeviation="20"></feGaussianBlur>
	<feColorMatrix  values="0 0 0 0 0 0 0 0 0 0 0 0 0 0 0 0 0 0 0.09 0" type="matrix" in="shadowBlurOuter1"></feColorMatrix>
</filter>
<g id="_x30_9" transform="translate(-765.000000, -236.000000)">
	<g id="iPhones" transform="translate(597.000000, 206.000000)">
		<g id="Phone" transform="translate(207.000000, 49.000000)">
			<g id="Combined-Shape">
				<g filter="url(#filter-2)">
					<path id="path-1_2_" fill="#EEF0FF" d="M298.626,163.499c1.063,0.21,1.869,1.146,1.869,2.272v65.615
						c0,1.125-0.809,2.063-1.869,2.271v348.876c0,24.006-19.446,43.467-43.438,43.467H46.436c-23.988,0-43.438-19.461-43.438-43.467
						V248.766c-0.901-0.632-1.493-1.68-1.493-2.868v-38.837c0-1.187,0.592-2.233,1.493-2.869v-10.805
						c-0.901-0.635-1.493-1.683-1.493-2.868v-38.838c0-1.187,0.592-2.236,1.493-2.867v-19.427H1.643v-22.992h1.355v-36.93
						C2.998,45.46,22.448,26,46.436,26h208.754c23.989,0,43.438,19.46,43.438,43.465L298.626,163.499L298.626,163.499z
						 M15.212,583.072c0,15.858,12.891,28.712,28.795,28.712H257.59c15.902,0,28.789-12.854,28.789-28.712V67.963
						c0-15.861-12.887-28.716-28.789-28.716h-27.628c-2.053,0.09-3.691,1.738-3.765,3.79v2.438c0,8.291-6.734,15.012-15.055,15.012
						H90.68c-8.316,0-15.063-6.721-15.063-15.012v-2.3h-0.025c0-2.116-1.675-3.835-3.769-3.929H44.006
						c-15.904,0-28.795,12.854-28.795,28.716L15.212,583.072L15.212,583.072z"/>
				</g>
				<g>
					<path id="path-1_1_" fill="#EEF0FF" d="M298.626,163.499c1.063,0.21,1.869,1.146,1.869,2.272v65.615
						c0,1.125-0.809,2.063-1.869,2.271v348.876c0,24.006-19.446,43.467-43.438,43.467H46.436c-23.988,0-43.438-19.461-43.438-43.467
						V248.766c-0.901-0.632-1.493-1.68-1.493-2.868v-38.837c0-1.187,0.592-2.233,1.493-2.869v-10.805
						c-0.901-0.635-1.493-1.683-1.493-2.868v-38.838c0-1.187,0.592-2.236,1.493-2.867v-19.427H1.643v-22.992h1.355v-36.93
						C2.998,45.46,22.448,26,46.436,26h208.754c23.989,0,43.438,19.46,43.438,43.465L298.626,163.499L298.626,163.499z
						 M15.212,583.072c0,15.858,12.891,28.712,28.795,28.712H257.59c15.902,0,28.789-12.854,28.789-28.712V67.963
						c0-15.861-12.887-28.716-28.789-28.716h-27.628c-2.053,0.09-3.691,1.738-3.765,3.79v2.438c0,8.291-6.734,15.012-15.055,15.012
						H90.68c-8.316,0-15.063-6.721-15.063-15.012v-2.3h-0.025c0-2.116-1.675-3.835-3.769-3.929H44.006
						c-15.904,0-28.795,12.854-28.795,28.716L15.212,583.072L15.212,583.072z"/>
				</g>
			</g>
		</g>
	</g>
</g>
</svg>
